<?xml version="1.0" encoding="iso-8859-1"?>
<!-- Generator: Adobe Illustrator 19.0.0, SVG Export Plug-In . SVG Version: 6.00 Build 0)  -->
<svg version="1.1" id="Layer_1" xmlns="http://www.w3.org/2000/svg" xmlns:xlink="http://www.w3.org/1999/xlink" x="0px" y="0px"
	 viewBox="0 0 511.844 511.844" style="enable-background:new 0 0 511.844 511.844;" xml:space="preserve">
<g>
	<path style="fill:#434A54;" d="M458.531,106.624c0-23.556-19.104-42.644-42.658-42.644h-10.699c-5.889,0-10.67,4.765-10.67,10.653
		s4.781,10.668,10.67,10.668h10.605l0,0c0.031,0,0.062,0,0.094,0c11.762,0,21.322,9.575,21.322,21.322
		c0,3.936-1.062,7.606-2.922,10.762h13.512v17.526C454.471,127.383,458.531,117.48,458.531,106.624z"/>
	<path style="fill:#434A54;" d="M447.863,149.282c0,5.89-4.779,10.669-10.668,10.669s-10.654-4.779-10.654-10.669
		c0-5.889,4.766-10.668,10.654-10.668S447.863,143.394,447.863,149.282z"/>
</g>
<path style="fill:#E6E9ED;" d="M95.971,501.176c-5.874,0-10.669-4.78-10.669-10.669V21.321c0-5.873,4.795-10.668,10.669-10.668
	h255.921c5.873,0,10.668,4.795,10.668,10.668v469.186c0,5.889-4.795,10.669-10.668,10.669H95.971z"/>
<path style="fill:#CCD1D9;" d="M437.195,122.619v207.937v42.659c0,17.635-14.34,31.99-31.99,31.99
	c-17.637,0-31.99-14.355-31.99-31.99c0,0-21.322-17.448-21.322,0c0,29.443,23.867,53.312,53.312,53.312
	c29.443,0,53.326-23.868,53.326-53.312V122.619H437.195z"/>
<path style="fill:#656D78;" d="M394.473,106.718l0.078,85.177l42.645,21.368h21.258V106.718H394.473z M437.133,189.38
	l-21.275-10.669l-0.031-50.656h21.307v61.325H437.133z"/>
<path style="fill:#A0D468;" d="M297.067,271.543c0,0-76.54-4.172-112.919,32.021c-22.306,22.195-22.431,58.247-0.281,80.584l0,0
	c22.212,22.26,58.279,22.337,80.585,0.141C300.83,348.098,297.067,271.543,297.067,271.543z"/>
<path style="fill:#8CC153;" d="M236.756,331.477c-4.171-4.17-10.919-4.17-15.089,0l-67.854,67.855c-4.17,4.17-4.17,10.918,0,15.073
	c4.171,4.171,10.919,4.171,15.074,0l67.87-67.854C240.927,342.381,240.927,335.633,236.756,331.477z"/>
<rect x="85.302" y="10.653" style="fill:#5D9CEC;" width="277.26" height="223.93"/>
<path style="fill:#E6E9ED;" d="M351.893,0H95.971C84.193,0,74.649,9.544,74.649,21.321v469.186c0,11.778,9.544,21.337,21.322,21.337
	h255.921c11.777,0,21.322-9.559,21.322-21.337V21.321C373.215,9.544,363.67,0,351.893,0z M351.893,490.507H95.971V21.321h255.921
	v469.186H351.893z"/>
<path style="fill:#656D78;" d="M394.551,511.844H53.312v-42.658c0-11.777,9.56-21.322,21.337-21.322h298.565
	c11.777,0,21.336,9.545,21.336,21.322v42.658H394.551z"/>
<g>
</g>
<g>
</g>
<g>
</g>
<g>
</g>
<g>
</g>
<g>
</g>
<g>
</g>
<g>
</g>
<g>
</g>
<g>
</g>
<g>
</g>
<g>
</g>
<g>
</g>
<g>
</g>
<g>
</g>
</svg>
