<svg xmlns="http://www.w3.org/2000/svg" viewBox="0 0 950.67 660.5"><title>Asset 6</title><g id="Layer_2" data-name="Layer 2"><g id="Main"><g id="Container"><polygon points="155.11 399.1 161.91 404.16 163.21 413.07 160.1 412.51 160.8 410.39 160.08 405.44 155.26 403.62 154.15 400.58 155.11 399.1" style="fill:#787d92"/><path d="M128.37,143.67s0-5,4-3" transform="translate(-3.2)" style="fill:#96959b"/><path d="M77.37,118.67" transform="translate(-3.2)" style="fill:#757577"/><path d="M128.41,134.75l0-3.08a2,2,0,0,1,2-2h4l.17,2.71s-1.17,1.29-2.17,2.29S128.41,134.75,128.41,134.75Z" transform="translate(-3.2)" style="fill:#7f838c"/><path d="M128.37,143.67s0-3,2-3h2s0,1,2,1h1v-4h-2l-1,1h-2v-1l-2-1Z" transform="translate(-3.2)" style="fill:#99989e"/><path d="M128.37,136.67h-1v-2h5s1-3,3-2v1h4v3l-4,1h-2l-1,1h-2v-1Z" transform="translate(-3.2)" style="fill:#605c59"/><path d="M132.37,140.67s0,1,3,1h2v2h-9Z" transform="translate(-3.2)" style="fill:#96959b"/><path d="M137.87,158.92s6.5-1.25,5.32,3.75,1.18,22,1.18,22a10.92,10.92,0,0,1-3.84.25C138.46,184.67,137.87,158.92,137.87,158.92Z" transform="translate(-3.2)" style="fill:#7a7a7c"/><polygon points="168.5 560.33 171.17 559.67 172.17 576.67 170.5 576.83 168.5 560.33" style="fill:#737479"/><polygon points="155.17 406.15 157.98 404.83 160.04 405.77 161.17 411.41 160.04 413.67 156.48 412.92 155.17 406.15" style="fill:#5b5a62"/><polygon points="129.9 161.29 126.51 160.41 127.63 184.68 129.83 184.93 129.9 161.29" style="fill:#7a7a7c"/><path d="M128.37,143.67s2,2,2,3,4,52,4,52l2,28,4,42,3,37,9,101,8,91,8,88h6l-37-442Z" transform="translate(-3.2)" style="fill:#c4c4c4"/><circle cx="138.17" cy="163.67" r="1" style="fill:#9f9fa0"/><polygon points="166 587.58 166.17 589.67 171.17 589.67 171.17 587.42 166 587.58" style="fill:#818592"/><circle cx="139.17" cy="181.67" r="1" style="fill:#9f9fa0"/><polygon points="171.17 559.67 169.67 559 170.17 556.67 174.17 559.67 175.17 579.67 172.17 576.67 171.17 559.67" style="fill:#95989f"/><path d="M168.37,585.67h7a1.39,1.39,0,0,1,0,2h-7A1.39,1.39,0,0,1,168.37,585.67Z" transform="translate(-3.2)" style="fill:#363e4c"/><polygon points="126.11 376.78 132.91 381.65 134.21 390.19 131.1 389.66 131.8 387.62 131.08 382.88 126.26 381.13 125.14 378.21 126.11 376.78" style="fill:#787d92"/><path d="M99.37,131.66s0-4.8,4-2.88" transform="translate(-3.2)" style="fill:#96959b"/><path d="M48.37,107.67" transform="translate(-3.2)" style="fill:#757577"/><path d="M99.41,123.1l0-3a1.91,1.91,0,0,1,2-1.92h4l.17,2.6s-1.17,1.24-2.17,2.2S99.41,123.1,99.41,123.1Z" transform="translate(-3.2)" style="fill:#7f838c"/><path d="M99.37,131.66s0-2.88,2-2.88h2s0,1,2,1h1V125.9h-2l-1,1h-2v-1l-2-1Z" transform="translate(-3.2)" style="fill:#99989e"/><path d="M99.37,124.94h-1V123h5s1-2.88,3-1.92v1h4v2.88l-4,1h-2l-1,1h-2v-1Z" transform="translate(-3.2)" style="fill:#605c59"/><path d="M103.37,128.78s0,1,3,1h2v1.92h-9Z" transform="translate(-3.2)" style="fill:#96959b"/><path d="M108.87,146.29s6.5-1.2,5.32,3.6S115.37,171,115.37,171a11.36,11.36,0,0,1-3.84.24C109.46,171,108.87,146.29,108.87,146.29Z" transform="translate(-3.2)" style="fill:#7a7a7c"/><polygon points="139.5 531.52 142.17 530.88 143.17 547.19 141.5 547.35 139.5 531.52" style="fill:#737479"/><polygon points="126.17 383.55 128.98 382.29 131.04 383.19 132.17 388.6 131.04 390.77 127.48 390.05 126.17 383.55" style="fill:#5b5a62"/><polygon points="100.9 148.57 97.51 147.73 98.63 171.02 100.83 171.25 100.9 148.57" style="fill:#7a7a7c"/><path d="M99.37,131.66s2,1.92,2,2.88,4,49.9,4,49.9l2,26.87,4,40.31,3,35.51,9,96.93,8,87.33,8,84.45h6l-37-424.17Z" transform="translate(-3.2)" style="fill:#c4c4c4"/><ellipse cx="109.17" cy="150.85" rx="1" ry="0.96" style="fill:#9f9fa0"/><polygon points="137 557.67 137.17 559.67 142.17 559.67 142.17 557.51 137 557.67" style="fill:#818592"/><ellipse cx="110.17" cy="168.13" rx="1" ry="0.96" style="fill:#9f9fa0"/><polygon points="142.17 530.88 140.67 530.24 141.17 528 145.17 530.88 146.17 550.07 143.17 547.19 142.17 530.88" style="fill:#95989f"/><path d="M139.37,555.83h7a1.29,1.29,0,0,1,0,1.92h-7A1.29,1.29,0,0,1,139.37,555.83Z" transform="translate(-3.2)" style="fill:#363e4c"/><polygon points="103.11 357.83 109.91 362.59 111.21 370.94 108.1 370.42 108.8 368.43 108.08 363.79 103.26 362.08 102.14 359.23 103.11 357.83" style="fill:#787d92"/><path d="M76.37,118.13s0-4.69,4-2.82" transform="translate(-3.2)" style="fill:#96959b"/><path d="M25.37,94.67" transform="translate(-3.2)" style="fill:#757577"/><path d="M76.41,109.76l0-2.89a1.88,1.88,0,0,1,2-1.88h4l.17,2.54s-1.17,1.21-2.17,2.15S76.41,109.76,76.41,109.76Z" transform="translate(-3.2)" style="fill:#7f838c"/><path d="M76.37,118.13s0-2.82,2-2.82h2s0,.94,2,.94h1V112.5h-2l-1,.94h-2v-.94l-2-.94Z" transform="translate(-3.2)" style="fill:#99989e"/><path d="M76.37,111.56h-1v-1.88h5s1-2.82,3-1.88v.94h4v2.82l-4,.94h-2l-1,.94h-2v-.94Z" transform="translate(-3.2)" style="fill:#605c59"/><path d="M80.37,115.31s0,.94,3,.94h2v1.88h-9Z" transform="translate(-3.2)" style="fill:#96959b"/><path d="M85.87,132.44s6.5-1.17,5.32,3.52,1.18,20.65,1.18,20.65a11.61,11.61,0,0,1-3.84.23C86.46,156.6,85.87,132.44,85.87,132.44Z" transform="translate(-3.2)" style="fill:#7a7a7c"/><polygon points="116.5 509.14 119.17 508.51 120.17 524.47 118.5 524.62 116.5 509.14" style="fill:#737479"/><polygon points="103.17 364.45 105.98 363.21 108.04 364.1 109.17 369.39 108.04 371.5 104.48 370.8 103.17 364.45" style="fill:#5b5a62"/><polygon points="77.9 134.66 74.51 133.84 75.63 156.62 77.83 156.84 77.9 134.66" style="fill:#7a7a7c"/><path d="M76.37,118.13s2,1.88,2,2.82,4,48.8,4,48.8l2,26.28,4,39.41,3,34.72,9,94.78,8,85.4,8,82.58h6l-37-414.79Z" transform="translate(-3.2)" style="fill:#c4c4c4"/><ellipse cx="86.17" cy="136.9" rx="1" ry="0.94" style="fill:#9f9fa0"/><polygon points="114 534.71 114.17 536.67 119.17 536.67 119.17 534.56 114 534.71" style="fill:#818592"/><ellipse cx="87.17" cy="153.79" rx="1" ry="0.94" style="fill:#9f9fa0"/><polygon points="119.17 508.51 117.67 507.89 118.17 505.7 122.17 508.51 123.17 527.28 120.17 524.47 119.17 508.51" style="fill:#95989f"/><path d="M116.37,532.91h7a1.25,1.25,0,0,1,0,1.88h-7A1.25,1.25,0,0,1,116.37,532.91Z" transform="translate(-3.2)" style="fill:#363e4c"/><polygon points="78.18 338.29 84.99 342.8 86.31 350.76 83.19 350.27 83.89 348.37 83.16 343.95 78.34 342.33 77.22 339.62 78.18 338.29" style="fill:#787d92"/><path d="M51,110s0-4.47,4-2.69" transform="translate(-3.2)" style="fill:#96959b"/><path d="M0,87.77" transform="translate(-3.2)" style="fill:#757577"/><path d="M51.07,102.05l0-2.76a1.82,1.82,0,0,1,2-1.79h4l.17,2.42S56,101.08,55,102,51.07,102.05,51.07,102.05Z" transform="translate(-3.2)" style="fill:#7f838c"/><path d="M51,110s0-2.68,2-2.69h2s0,.89,2,.89h1v-3.58H56l-1,.9H53v-.89l-2-.89Z" transform="translate(-3.2)" style="fill:#99989e"/><path d="M51,103.77H50V102h5s1-2.68,3-1.79v.89h4v2.68l-4,.9H56l-1,.9H53v-.89Z" transform="translate(-3.2)" style="fill:#605c59"/><path d="M55,107.34s0,.89,3,.89h2V110l-9,0Z" transform="translate(-3.2)" style="fill:#96959b"/><path d="M60.56,123.64s6.5-1.13,5.32,3.34,1.22,19.66,1.22,19.66a12.17,12.17,0,0,1-3.84.23C61.19,146.65,60.56,123.64,60.56,123.64Z" transform="translate(-3.2)" style="fill:#7a7a7c"/><polygon points="80.67 419.92 73.17 418.67 67.17 412.67 67.17 416.67 74.17 423.67 77.17 423.67 81.17 427.67 80.67 419.92" style="fill:#9c9da0"/><polygon points="91.82 482.38 94.49 481.78 95.51 496.98 93.85 497.13 91.82 482.38" style="fill:#737479"/><polygon points="78.25 344.59 81.06 343.41 83.12 344.25 84.26 349.28 83.13 351.3 79.57 350.63 78.25 344.59" style="fill:#5b5a62"/><polygon points="52.6 125.77 49.2 124.99 50.36 146.68 52.56 146.89 52.6 125.77" style="fill:#7a7a7c"/><path d="M51,110s2,1.78,2,2.68,4.08,46.47,4.08,46.47l2,25,4.07,37.53,3.06,33.07,9.16,90.26,8.14,81.33L91.73,505h6L60,110Z" transform="translate(-3.2)" style="fill:#c4c4c4"/><ellipse cx="64.07" cy="127.88" rx="1" ry="0.89" transform="translate(-3.43 0.11) rotate(-0.1)" style="fill:#9f9fa0"/><polygon points="89.36 506.74 89.53 508.61 94.53 508.6 94.53 506.59 89.36 506.74" style="fill:#818592"/><ellipse cx="65.1" cy="143.97" rx="1" ry="0.89" transform="translate(-3.45 0.11) rotate(-0.1)" style="fill:#9f9fa0"/><polygon points="94.49 481.78 92.99 481.19 93.48 479.1 97.49 481.78 98.52 499.65 95.51 496.98 94.49 481.78" style="fill:#95989f"/><path d="M91.73,505h7a1.15,1.15,0,0,1,0,1.79h-7A1.15,1.15,0,0,1,91.73,505Z" transform="translate(-3.2)" style="fill:#363e4c"/><polygon points="104.67 442.92 97.17 441.67 91.17 435.67 91.17 439.67 98.17 446.67 101.17 446.67 105.17 450.67 104.67 442.92" style="fill:#9c9da0"/><polygon points="135.67 482.42 143.17 483.67 149.17 489.67 149.17 485.67 142.17 478.67 139.17 478.67 135.17 474.67 135.67 482.42" style="fill:#9c9da0"/><polygon points="164.67 509.42 172.17 510.67 178.17 516.67 178.17 512.67 171.17 505.67 168.17 505.67 164.17 501.67 164.67 509.42" style="fill:#9c9da0"/><polygon points="191.92 144.1 213.31 143.76 230.39 421.28 213.18 423.13 191.92 144.1" style="fill:#626264"/><polygon points="28.67 74 702.67 0 940.67 33 201.67 141 184.67 141 28.67 74" style="fill:#1e4729"/><polygon points="907.67 42 921.67 40 885.67 375 873.29 373.35 907.67 42" style="fill:#97989a"/><polygon points="907.67 42 899.67 43 865.48 370.78 873.67 373 907.67 42" style="fill:#717173"/><polygon points="899.67 43 865.67 371 861.67 368 894.67 44 899.67 43" style="fill:#3c3c3a"/><polygon points="861.67 368 894.67 44 888.67 45 856.54 362.44 861.67 368" style="fill:#6a6a6c"/><polygon points="845.17 361 847.67 361 852.67 362 855.67 362 856.07 362.2 856.38 362.35 856.54 362.44 888.67 45 875.67 46.75 845.17 361" style="fill:#8c8c8c"/><polyline points="845.17 361 842.67 361 837.67 358.88 867.54 47.63 875.67 46.75" style="fill:#7b7b7d"/><polygon points="837.67 358.88 835.67 358 832.67 354 862.67 48.5 867.54 47.63 837.67 358.88" style="fill:#444"/><polygon points="862.67 48.5 857.17 49.5 828.67 352 832.67 354 862.67 48.5" style="fill:#5c5c5e"/><polygon points="828.67 352 816.67 351 844.67 51 857.17 49.5 828.67 352" style="fill:#7e7e80"/><polygon points="816.67 351 809.67 349 837.67 52.5 844.67 51 816.67 351" style="fill:#6f6f71"/><polygon points="809.67 349 805.67 344 832.67 52.5 837.67 52.5 809.67 349" style="fill:#373737"/><polygon points="805.67 344 802.67 342 828.17 54 832.67 52.5 805.67 344" style="fill:#676769"/><polygon points="802.67 342 792.17 341 815.67 55.5 828.17 54 802.67 342" style="fill:#808082"/><polygon points="792.17 341 789.67 341 785.17 338.63 808.29 56.88 815.67 55.5 792.17 341" style="fill:#676769"/><polygon points="785.17 338.63 783.67 338 780.83 335.5 803.5 57.5 808.29 56.88 785.17 338.63" style="fill:#2f2f30"/><polygon points="780.83 335.5 779.67 334 776.33 332.5 798.67 58.67 803.5 57.5 780.83 335.5" style="fill:#68696b"/><polygon points="776.33 332.5 774.67 332 767.17 332 787.83 59.67 798.67 58.67 776.33 332.5" style="fill:#7f7f81"/><polygon points="767.17 332 759.67 329 780.67 60.5 787.83 59.67 767.17 332" style="fill:#6b6b6d"/><polygon points="217.67 413 677.67 287 683 304.33 219 438.33 217.67 413" style="fill:#626264"/><polygon points="759.67 329 756.17 325.5 775.17 61.25 780.67 60.5 759.67 329" style="fill:#333"/><polygon points="756.17 325.5 750.67 322 771 61.67 775.17 61.25 756.17 325.5" style="fill:#6c6c6d"/><polygon points="750.67 322 741.67 322 760 63.33 771 61.67 750.67 322" style="fill:#7c7c7e"/><polygon points="233.67 624 218.67 424 682.67 297 686.67 299 689.67 303 694.67 305 705.67 305 709.67 307 711.67 310 717.67 312 726.67 313 728.67 313 733.67 315 735.67 320 741.67 322 750.67 322 754.67 324 759.67 329 765.67 332 774.67 332 779.67 334 783.67 338 789.67 341 802.67 342 805.67 344 809.67 349 816.67 351 828.67 352 832.67 354 835.67 358 842.67 361 847.67 361 852.67 362 855.67 362 859.67 364 861.67 368 863.67 370 870.67 373 885.67 375 893.67 380 233.67 624" style="fill:#275936"/><polygon points="741.67 322 735.67 320 753.67 64 760 63.33 741.67 322" style="fill:#59595b"/><polygon points="735.67 320 733.67 315 749.17 64.25 753.67 64 735.67 320" style="fill:#363638"/><polygon points="733.67 315 728.67 313 745.17 65.5 749.17 64.25 733.67 315" style="fill:#5c5c5e"/><polygon points="728.67 313 719.42 312.25 733.67 67 745.17 65.5 728.67 313" style="fill:#767678"/><polygon points="719.42 312.25 717.67 312 713.29 310.5 727.92 68.5 733.67 67 719.42 312.25" style="fill:#59595b"/><polygon points="713.29 310.5 711.67 310 709.67 307 723.67 68.63 727.92 68.5 713.29 310.5" style="fill:#333"/><polygon points="709.67 307 705.67 305 719.17 69.5 723.67 68.63 709.67 307" style="fill:#5b5b5d"/><polygon points="705.67 305 696.04 305.13 709.29 71.13 719.17 69.5 705.67 305" style="fill:#717173"/><polygon points="696.04 305.13 689.67 303 702.79 71.75 709.29 71.13 696.04 305.13" style="fill:#5e5e60"/><polygon points="689.67 303 686.67 299 698.92 72 702.79 71.75 689.67 303" style="fill:#222"/><polygon points="233.67 624 234.17 645 893.17 398.5 893.67 380 233.67 624" style="fill:#356841"/><polygon points="885.67 375 893.67 380 897 381.17 935.04 38.5 921.67 40 885.67 375" style="fill:#1e4729"/><polygon points="897 381.17 896.42 399.63 893.17 398.5 893.67 380 897 381.17" style="fill:#1e4729"/><polygon points="897 383.83 910.17 379.83 908.83 395.83 896.42 399.63 897 383.83" style="fill:#1e4729"/><ellipse cx="906.45" cy="389.59" rx="2.24" ry="2.42" transform="translate(-80.4 466.18) rotate(-27.71)"/><polygon points="896 383.83 909.17 379.83 946.83 49.17 933 50 896 383.83" style="fill:#356841"/><polygon points="934 50 949.17 48.67 950.67 30.17 934 28.17 922 30.5 940.67 33 934.67 33.67 934 50" style="fill:#1e4729"/><ellipse cx="947.86" cy="40.64" rx="4.74" ry="2.39" transform="translate(779.18 974.83) rotate(-82.41)"/><polygon points="934.67 33.67 201.67 141 198.92 141 199.42 144 199.67 145.75 935.04 38.5 934.67 33.67" style="fill:#4b7d58"/><polygon points="199.92 141 200 167 171.33 171.67 156 164.33 156 137 172 133.67 199.92 141" style="fill:#1e4729"/><ellipse cx="186.2" cy="154.99" rx="4.71" ry="9.25" transform="translate(-12.02 11.25) rotate(-3.38)"/><polygon points="686.67 299 682.67 297 696 73.67 699 73.17 686.67 299" style="fill:#555557"/><polygon points="677.42 298.5 682.67 297 696 73.67 690.42 74.25 677.42 298.5" style="fill:#6b6b6d"/><polygon points="677.42 298.5 672.42 300 685.92 75 690.42 74.25 677.42 298.5" style="fill:#828284"/><polygon points="654.92 305 659.92 303.75 668.67 78 663.17 78.75 654.92 305" style="fill:#828284"/><polygon points="631.92 310.33 636.92 309.07 645.67 81 640.17 81.76 631.92 310.33" style="fill:#828284"/><polygon points="608.58 317 613.58 315.72 622.33 84.67 616.83 85.43 608.58 317" style="fill:#828284"/><polygon points="582.92 324 587.92 322.7 596.67 88 591.17 88.78 582.92 324" style="fill:#828284"/><polygon points="557.25 331.67 562.25 330.35 571 92 565.5 92.79 557.25 331.67" style="fill:#828284"/><polygon points="531.07 338.78 536.05 337.36 540.9 95.36 535.41 96.25 531.07 338.78" style="fill:#828284"/><polygon points="505.76 345.12 510.74 343.69 515.56 100.36 510.08 101.26 505.76 345.12" style="fill:#828284"/><polygon points="477.48 353.78 482.45 352.31 485.91 104.34 480.43 105.28 477.48 353.78" style="fill:#828284"/><polygon points="449.98 360.73 454.93 359.16 454.5 108.79 449.03 109.82 449.98 360.73" style="fill:#828284"/><polygon points="421.53 367.75 426.45 366.11 423.07 113.27 417.62 114.38 421.53 367.75" style="fill:#828284"/><polygon points="392.08 375.88 397 374.21 392.72 117.27 387.27 118.4 392.08 375.88" style="fill:#828284"/><polygon points="361.21 385.87 366.12 384.14 359.88 122.27 354.44 123.45 361.21 385.87" style="fill:#828284"/><polygon points="330.34 393.33 335.23 391.53 325.88 127.79 320.45 129.04 330.34 393.33" style="fill:#828284"/><polygon points="297.65 402.5 302.52 400.63 290.93 132.31 285.51 133.61 297.65 402.5" style="fill:#828284"/><polygon points="264.67 411.03 269.52 409.09 254.27 136.86 248.87 138.24 264.67 411.03" style="fill:#828284"/><polygon points="229.61 421.63 234.45 419.66 218.69 143.36 213.3 144.76 229.61 421.63" style="fill:#828284"/><polygon points="668.67 78 685.92 75 672.42 300 659.92 303.75 668.67 78" style="fill:#626264"/><polygon points="645.67 81 663.17 78.75 654.92 305 636.92 309.07 645.67 81" style="fill:#626264"/><polygon points="622.33 84.67 640.17 81.76 631.92 310.33 613.58 315.72 622.33 84.67" style="fill:#626264"/><polygon points="596.67 88 616.83 85.43 608.58 317 587.92 322.7 596.67 88" style="fill:#626264"/><polygon points="571 92 591.17 88.78 582.92 324 562.25 330.35 571 92" style="fill:#626264"/><polygon points="540.9 95.36 565.5 92.79 557.25 331.67 536.05 337.36 540.9 95.36" style="fill:#626264"/><polygon points="515.56 100.36 535.41 96.25 531.07 338.78 510.74 343.69 515.56 100.36" style="fill:#626264"/><polygon points="485.91 104.34 510.08 101.26 505.76 345.12 482.45 352.31 485.91 104.34" style="fill:#626264"/><polygon points="480.43 105.28 454.5 108.79 454.93 359.16 477.48 353.78 480.43 105.28" style="fill:#626264"/><polygon points="423.07 113.27 449.03 109.82 449.98 360.73 426.45 366.11 423.07 113.27" style="fill:#626264"/><polygon points="392.72 117.27 417.62 114.38 421.53 367.75 397 374.21 392.72 117.27" style="fill:#626264"/><polygon points="359.88 122.27 387.27 118.4 392.08 375.88 366.12 384.14 359.88 122.27" style="fill:#626264"/><polygon points="325.88 127.79 354.44 123.45 361.21 385.87 335.23 391.53 325.88 127.79" style="fill:#626264"/><polygon points="290.93 132.31 320.45 129.04 330.34 393.33 302.52 400.63 290.93 132.31" style="fill:#626264"/><polygon points="254.27 136.86 285.51 133.61 297.65 402.5 269.52 409.09 254.27 136.86" style="fill:#626264"/><polygon points="248.87 138.24 264.67 411.03 234.45 419.66 218.69 143.36 248.87 138.24" style="fill:#626264"/><polygon points="233.67 628.33 234.67 651 206.17 660.5 194.67 648 193.17 626 202.67 623.5 204.33 636.33 211.67 639 233.67 628.33" style="fill:#1e4729"/><ellipse cx="224.38" cy="644.29" rx="5.5" ry="5.6" transform="translate(-76.2 30.27) rotate(-6.64)"/><polygon points="203 618.67 202.67 608.5 171.33 577.17 72.17 475.83 73.5 491.33 75.83 493.33 76 486.33 86.83 495.17 87 504 89.5 506.83 193.83 618.33 194.83 611.5 203 618.67" style="fill:#1e4729"/><polygon points="72.17 475.83 63.67 468 62.54 458.88 63.79 459.13 64.54 466.25 87.42 488.88 128.92 532.13 90.42 131.75 93.92 131.75 132.54 534.5 199.92 605.75 199.17 608 72.17 475.83" style="fill:#161c3a"/><polygon points="199.92 605.75 202.67 608.5 202.83 610.5 199.17 608 199.92 605.75" style="fill:#161c3a"/><polygon points="63.79 459.13 67.5 459.5 67.67 451.33 68.83 449.33 200.17 576.5 202.67 608.5 64.54 466.25 63.79 459.13" style="fill:#356841"/><polygon points="74.92 434.75 74.54 423.25 80.42 427.63 81.42 433.38 83.04 434.5 83.67 442.88 74.92 434.75" style="fill:#26366c"/><polygon points="65.67 417.88 71.67 422.5 74.54 423.25 74.92 434.75 69.42 445.5 68.83 449.33 67.67 451.33 65.67 417.88" style="fill:#1e4729"/><polygon points="199.67 144.75 199.67 150 933.67 42.67 935.04 37.5 199.67 144.75" style="fill:#4b7d58"/><polygon points="49.83 268.83 56 258 54.5 245.33 46.17 236.67 48.33 268.67 49.83 268.83" style="fill:#1e4729"/><polygon points="52.33 283.5 59.83 291.67 60.67 303 54 314.83 50.67 281.83 52.33 283.5" style="fill:#1e4729"/><polygon points="56.83 328.83 64.83 335.5 65.67 348.33 60 359.33 56.83 328.83" style="fill:#1e4729"/><polygon points="156.42 155.25 134.04 145.13 103.29 130.25 28.04 93.13 21.29 93.38 21.79 105.88 60.04 444.75 63.67 468 64.54 466.25 23.42 106.25 23.29 99 156 164.33 156.42 155.25" style="fill:#252429;isolation:isolate"/><polygon points="44.67 148.5 24.67 134 36.67 202 63.67 454.75 72.67 453.75 44.67 148.5" style="fill:#1e4729"/><polygon points="51.04 470.88 63.67 468 21.79 105.88 21.29 93.38 9.92 94.25 7.04 92.5 7.42 106.38 9.42 106.25 51.04 470.88" style="fill:#1e4729"/><path d="M26.12,228.5" transform="translate(-3.2)" style="fill:#2d3d79"/><polygon points="23.29 99 171.33 171.67 173.67 209.5 24.67 134 23.29 99" style="fill:#285b36"/><g id="Tank2"><path d="M173.08,486.89l-.29-5.5-2-37L169,410.87l-1.52-28.51s.38-4.53,3.39-6.2l77.54,22.44,3.45,111.17-8.83-2.54.5,21-51.63-13.79s-8.18-2.07-6.8-22.71Z" transform="translate(-3.2)" style="fill:#b3b7ba"/><path d="M248.43,398.6a77.27,77.27,0,0,0,16.71-.89c9.23-1.5,100.86-17.42,100.86-17.42l1.74,32.51,4.3,80.53-14.77,2.29.88,16.51s-.24,7-8.86,8.5l-12.38.66s7.83-4.43,3.74-11.23-14.58-5.74-14.58-5.74-11.81-.37-16.93,8.43l.77,14.5-22.2,2.69s3-2.17,2.83-5.17l-1-18.51L275.43,509s-12.84,3.7-23.55.76Z" transform="translate(-3.2)" style="fill:#fafbfe"/><path d="M366,380.28l5.54-.8s6.73-1.86,6.13,21.74l4.75,89s-3.55,3.2-10.39,3.06Z" transform="translate(-3.2)" style="fill:#c1c1c5"/><path d="M172.66,374l72.82,20.62s12.79,1.82,30.38-1.62,92.42-16.44,92.42-16.44l-78-22.34a31.48,31.48,0,0,0-10.76.57c-6.28,1.34-108.19,18.28-108.19,18.28Z" transform="translate(-3.2)" style="fill:#898a8b"/><path d="M168.73,405.49s-3.55,3.32.23,4.25,79.7,22.2,79.7,22.2,6.27,1.17,19.21-.52,107.64-18.29,107.64-18.29,6.7-2.36,3.5-4.2" transform="translate(-3.2)" style="fill:none;stroke:#868b91;stroke-miterlimit:10;stroke-width:3px"/><path d="M170.54,439.5s-3.55,3.32.23,4.25,79.7,22.2,79.7,22.2,6.27,1.17,19.21-.52,107.64-18.29,107.64-18.29,6.7-2.36,3.5-4.2" transform="translate(-3.2)" style="fill:none;stroke:#868b91;stroke-miterlimit:10;stroke-width:3px"/><path d="M172.44,475s-3.55,3.32.23,4.25,79.7,22.2,79.7,22.2,6.27,1.17,19.21-.52,107.64-18.29,107.64-18.29,6.7-2.36,3.5-4.2" transform="translate(-3.2)" style="fill:none;stroke:#868b91;stroke-miterlimit:10;stroke-width:3px"/><line x1="192.78" y1="382.75" x2="200.02" y2="522.65" style="fill:none;stroke:#868b91;stroke-miterlimit:10;stroke-width:3px"/><line x1="212.9" y1="387.7" x2="220.15" y2="527.6" style="fill:none;stroke:#868b91;stroke-miterlimit:10;stroke-width:3px"/><line x1="231.79" y1="392.71" x2="239.04" y2="532.61" style="fill:none;stroke:#868b91;stroke-miterlimit:10;stroke-width:3px"/><path d="M243.52,527.53l12,4.55a30.32,30.32,0,0,0,14.32.79c8-1.47,16-3.45,16-3.45s5.62.57,4.46-9.42l-.81-15.2-19.87,4.06s-18.25,2.65-27.25-3.11Z" transform="translate(-3.2)" style="fill:#4f4f4f"/><line x1="297.33" y1="391.49" x2="304.78" y2="531.6" style="fill:none;stroke:#868b91;stroke-miterlimit:10;stroke-width:3px"/><line x1="331.77" y1="385.64" x2="339.22" y2="525.75" style="fill:none;stroke:#868b91;stroke-miterlimit:10;stroke-width:3px"/><path d="M357.23,495s27.77-3,25.77-5.5-.3,17.54-.3,17.54.76,2.54-4,6.91a45.09,45.09,0,0,1-5.49,1.84c-4.28,1.26-22,4.4-22,4.4s8.24-2.12,6.84-12.87S357.23,495,357.23,495Z" transform="translate(-3.2)" style="fill:#4f4f4f"/><path d="M353.19,523.92l1.53,5.44,13.86,3.77s19.75-2.06,19-4.53-.69-13-.69-13Z" transform="translate(-3.2)" style="fill:#3f5494"/><path d="M243.74,535.28l-.21,4.05,3.13,2.05.47,8.85,10.45,3.32s21.18.53,27.66-2.59l.7-9.46,3.53-1.85-.27-5-11.39,1.72S249.16,538.16,243.74,535.28Z" transform="translate(-3.2)" style="fill:#3f5494"/><polyline points="364.92 378.67 372.45 520.33 272.85 537.74 272.21 537.85 272.24 538.36" style="fill:none;stroke:#868b91;stroke-miterlimit:10;stroke-width:3px"/><path d="M378.35,512.8s18.11,2-2.72,7.17" transform="translate(-3.2)" style="fill:none;stroke:#868b91;stroke-miterlimit:10;stroke-width:3px"/><path d="M173.93,369.22l1.85-.3L282.22,351.4s14.8-1.79,21.82,1.84l68.72,19.9s7.48.6.21,4-105.14,18.66-105.14,18.66S245.68,399.5,236.7,394l-70-19.84s-1.42-3.44,2.88-4.17Z" transform="translate(-3.2)" style="fill:none;stroke:#868b91;stroke-miterlimit:10;stroke-width:3px"/><polyline points="172.11 372.67 171.93 369.29 172.18 373.16" style="fill:none;stroke:#868b91;stroke-miterlimit:10;stroke-width:3px"/><path d="M208.6,363.52l.31,4.09Z" transform="translate(-3.2)" style="fill:none;stroke:#868b91;stroke-miterlimit:10;stroke-width:3px"/><path d="M241.83,358.23l.31,4.09Z" transform="translate(-3.2)" style="fill:none;stroke:#868b91;stroke-miterlimit:10;stroke-width:3px"/><path d="M274.42,352.48l.31,4.09Z" transform="translate(-3.2)" style="fill:none;stroke:#868b91;stroke-miterlimit:10;stroke-width:3px"/><line x1="304.63" y1="354.55" x2="304.98" y2="361.05" style="fill:none;stroke:#868b91;stroke-miterlimit:10;stroke-width:3px"/><line x1="324.18" y1="360.28" x2="324.53" y2="366.78" style="fill:none;stroke:#868b91;stroke-miterlimit:10;stroke-width:3px"/><line x1="343.07" y1="365.29" x2="343.41" y2="371.79" style="fill:none;stroke:#868b91;stroke-miterlimit:10;stroke-width:3px"/><polygon points="169.38 512.5 170.21 528 177.12 529.64 176.72 522.14 179.2 522.01 178.88 516.01 169.38 512.5" style="fill:#3a4d87"/><polygon points="187.62 517.04 197.47 515.51 203.64 516.98 203.31 520.22 197.71 520.02 198.06 526.52 177.12 529.64 176.72 522.14 179.16 521.32 178.88 516.01 187.62 517.04" style="fill:#364984"/><polygon points="198.49 522.98 198.09 527.02 201.29 528.85 201.77 537.86 217.51 542.03 217.08 534.03 218.94 533.93 218.72 529.93 218.67 528.93 198.49 522.98" style="fill:#364984"/><polygon points="218.67 528.93 218.94 533.93 229.43 532.87 218.67 528.93" style="fill:#3a4d87"/><polygon points="182.02 516.84 192.09 515.47 183.4 512.75 176.73 510.6 172.26 511.96 173.84 514.77 182.02 516.84" style="fill:#1f263f"/><polyline points="217.08 534.03 229.43 532.87 229.19 539.9 217.51 542.03" style="fill:#3a4d87"/><path d="M267.94,397.24l7.45,140.11-1,.22c-16.77,3.46-32-2.47-32-2.47S183.72,517.67,176.75,515s3.18-4.43,3.18-4.43l2.21-.37,3-.66" transform="translate(-3.2)" style="fill:none;stroke:#868b91;stroke-miterlimit:10;stroke-width:3px"/><path d="M173.25,486.88l13.7,5.13s.05,21.77,4.88,22.36S176,511.8,172.75,504Z" transform="translate(-3.2)" style="fill:#4f4f4f"/><line x1="173.27" y1="377.78" x2="180.52" y2="517.67" style="fill:none;stroke:#868b91;stroke-miterlimit:10;stroke-width:3px"/><path d="M309.27,515.11s-2.62-8.09,13.19-11.53S340.6,509,340.6,509l.38,7-4.12,4.2s-6.94-2.14-7-3.64,9.18-2.5,9.18-2.5l.46-3-12.32,1.66S319.76,502.38,309.27,515.11Z" transform="translate(-3.2)" style="fill:#abadad;opacity:0.7000000000000001"/><path d="M309.3,515.73s4-6.52,9.86-6.94a8,8,0,0,1,8,4s-4.87,1.76-4.82,2.77-1.86.1-1.86.1-4.41-1.27-6.06,2.83c0,0,.83,4,3.87,2.8l1.32,1.43-9.88,1Z" transform="translate(-3.2)" style="fill:#faf9fc"/><path d="M322.33,515.54s3.58-2.7,4.82-2.77,12.32-1.66,12.32-1.66l-.46,3s-10.49,1.06-9.18,2.5S323,517,323,517Z" transform="translate(-3.2)" style="fill:#014988"/><path d="M318.83,519.74a1.44,1.44,0,0,0-.13-2.5,2.11,2.11,0,0,0-2.45.63,1.34,1.34,0,0,0,.73,2A2.1,2.1,0,0,0,318.83,519.74Z" transform="translate(-3.2)" style="fill:#cbced1"/><path d="M321.17,517.1" transform="translate(-3.2)" style="fill:none;stroke:#95918e;stroke-miterlimit:10;stroke-width:2px"/><path d="M320.47,515.64s-1.79-.87-4.55.76-.29,4.4-.29,4.4a3.05,3.05,0,0,0,2.66.47l1.32,1.43s7.64,3.6,10.71,2.94c0,0-2.24-4.75,3.63-6.39l-4.11-2.61s.82.79-.82.71-6-.35-6-.35l-.41-.86Z" transform="translate(-3.2)" style="fill:#95918e;opacity:0.7000000000000001"/><ellipse cx="333.63" cy="523.71" rx="4.03" ry="3.26" transform="translate(-30.66 18.54) rotate(-3.06)" style="fill:#fc5a53"/></g><polygon points="156.42 157.25 28.04 93.09 28.67 73.33 172 134.96 156 138.4 156.42 157.25" style="fill:#4b7d58"/><polygon points="68.83 449.33 69.42 445.5 74.92 434.75 197.29 542.5 200.17 576.5 68.83 449.33" style="fill:#4b7d58"/><polygon points="28.04 93.09 28.67 73.33 36 73.67 35 69.67 28.67 66 0 68.67 3.33 90.67 9.92 94.25 28.04 93.09" style="fill:#1e4729"/><polygon points="170.33 171.67 199 167 233.67 624 233.67 628.33 211.67 639 204.33 636.33 170.33 171.67" style="fill:#4b7d58"/><path d="M12,108H25.33s4.25.75,4.25,3.63.25,8.13.25,8.13-.12,2-5.12,1.75-12.25-.12-12.25-.12Z" transform="translate(-3.2)" style="fill:#1e4729"/><polygon points="173.67 209.5 174.67 218 44.67 148.5 24.67 134 173.67 209.5" style="fill:#1e4729"/><polygon points="33.67 141 44.67 148.5 44.67 160.5 38.17 171.5 33.67 141" style="fill:#1e4729"/><polygon points="44.67 148.5 174.67 218 174.67 234 44.67 160.5 44.67 148.5" style="fill:#356841"/><polygon points="44.67 160.5 174.67 234 176.67 253 38.17 171.5 44.67 160.5" style="fill:#4b7d58"/><polygon points="38.17 171.5 176.67 253 182.17 330 46.17 236.67 38.17 171.5" style="fill:#285b36"/><polygon points="46.17 236.67 182.17 330 182.67 337 41.29 241.13 46.17 236.67" style="fill:#1e4729"/><polygon points="182.67 337 183.67 348.5 56 258 54.67 250 182.67 337" style="fill:#356841"/><polygon points="56 258 183.67 348.5 185.17 370.5 48.33 268.67 56 258" style="fill:#4b7d58"/><polygon points="48.33 268.67 185.17 370.5 186.17 383.5 50.67 281.83 48.33 268.67" style="fill:#285b36"/><polygon points="50.67 281.83 186.17 383.5 186.42 387.5 50.67 285 50.67 281.83" style="fill:#1e4729"/><polygon points="24.67 134 33.67 141 67.67 451.33 67.5 459.5 63.79 459.13 24.67 134" style="fill:#356841"/><path d="M26.62,229.38H40s4.21.75,4.21,3.62.25,8.13.25,8.13-.12,2-5.12,1.75-12.25-.12-12.25-.12Z" transform="translate(-3.2)" style="fill:#1e4729"/><path d="M39.28,340.71H52.66s4.25.75,4.25,3.63.25,8.13.25,8.13-.12,2-5.12,1.75-12.25-.12-12.25-.12Z" transform="translate(-3.2)" style="fill:#1e4729"/><path d="M51.28,444.71H64.66s4.25.75,4.25,3.63.25,8.13.25,8.13-.12,2-5.12,1.75-12.25-.12-12.25-.12Z" transform="translate(-3.2)" style="fill:#1e4729"/><polygon points="59.83 291.67 186.42 387.5 187.33 402 60.67 303 59.83 291.67" style="fill:#285b36"/><polygon points="65.32 342.5 64.83 335.5 188.69 435.22 189.67 444 65.32 342.5" style="fill:#285b36"/><polygon points="60.67 303 187.33 402 188.67 423 54 314.83 60.67 303" style="fill:#4b7d58"/><polygon points="54 314.83 188.67 423 189.33 437.33 56.83 328.83 54 314.83" style="fill:#285b36"/><polygon points="189.33 437.33 56.83 328.83 57.67 332.67 190 441.67 189.33 437.33" style="fill:#1e4729"/><polygon points="65 339.67 190 441.67 191 454.33 65.67 348.33 65 339.67" style="fill:#285b36"/><polygon points="65.67 348.33 191 454.33 192.67 476.67 58 359 65.67 348.33" style="fill:#4b7d58"/><polygon points="58 359 192.67 476.67 197.29 542.5 74.92 434.75 65.67 417.88 58 359" style="fill:#285b36"/><polygon points="73.5 491.33 58.17 496.5 50.17 491 47.17 471.5 63.67 468 72.17 475.83 73.5 491.33" style="fill:#1e4729"/></g><g id="Fermenter"><path d="M625.79,166.82s4.74,22.71,107,23.05,109.55-21.1,109.55-21.1L819.93,362.14s-4.94,35.42-96,34.6c0,0-55.89.66-76-30.33Z" transform="translate(-3.2)" style="fill:#2d2d2d"/><path d="M842.42,165.83c.28-15.6-47.88-28.68-107.57-29.22s-108.32,11.67-108.6,27.27,47.88,28.68,107.57,29.22S842.14,181.43,842.42,165.83Z" transform="translate(-3.2)" style="fill:#383838"/><path d="M709.16,161.2s31.1,9.54,60.9.55l.23-12.73s-18.21,5.62-33.84,4.9a88.52,88.52,0,0,1-27.06-5.45Z" transform="translate(-3.2)" style="fill:#5b5b5b"/><path d="M770.32,147.57c.07-3.68-13.51-6.78-30.33-6.93s-30.5,2.71-30.57,6.38,13.51,6.78,30.33,6.93S770.25,151.25,770.32,147.57Z" transform="translate(-3.2)" style="fill:#818181;opacity:0.7000000000000001"/><path d="M636.67,249.14s8.94,24,96.88,26S833,251.82,833,251.82" transform="translate(-3.2)" style="fill:none;stroke:#b1b1b2;stroke-miterlimit:10;stroke-width:2px;opacity:0.85"/><path d="M642.41,307.28s21.64,24.82,83.93,26.54S812,319,812,319s11.31-6.91,13.88-10" transform="translate(-3.2)" style="fill:none;stroke:#b1b1b2;stroke-miterlimit:10;stroke-width:2px;opacity:0.85"/><path d="M795,187.08,767.5,394.27c48.15-8.61,51.34-31.36,51.34-31.36l22.43-193.38S837.36,181.06,795,187.08Z" transform="translate(-3.2)" style="fill:#686868;opacity:0.3"/></g><g id="Tank2-2" data-name="Tank2"><path d="M580.7,430.07V328.71s-.53-4.37-3.18-5.82l-65.15,25.71,2.12,107.67,7.42-2.91.53,20.37,43.43-16s6.89-2.43,4.77-22.31Z" transform="translate(-3.2)" style="fill:#b3b7ba"/><path d="M512.37,348.59a58.34,58.34,0,0,1-14.3,0c-7.95-1-86.87-11.64-86.87-11.64V446.57L423.92,448v16a8.8,8.8,0,0,0,7.95,7.76h10.59s-6.89-3.88-3.71-10.67,12.18-6.31,12.18-6.31,10.06-1,14.83,7.28v14.07l19.07,1.46s-2.65-1.94-2.65-4.85V454.81l12.18,1.94s11.12,2.91,20.13-.49Z" transform="translate(-3.2)" style="fill:#fafbfe"/><path d="M411.2,337l-4.77-.49s-5.83-1.46-4.24,21.34v86.33s3.18,2.91,9,2.43Z" transform="translate(-3.2)" style="fill:#c1c1c5"/><path d="M575.91,320.91l-61.2,23.7s-10.83,2.42-26,0-79.62-11.12-79.62-11.12l65.54-25.63a23.8,23.8,0,0,1,9.21,0c5.42,1,93.16,12.09,93.16,12.09Z" transform="translate(-3.2)" style="fill:#898a8b"/><path d="M580.7,351.14s3.18,3,0,4.12-67,25.58-67,25.58-5.3,1.46-16.42.49-92.69-12.13-92.69-12.13-5.83-1.94-3.18-3.88" transform="translate(-3.2)" style="fill:none;stroke:#868b91;stroke-miterlimit:10;stroke-width:3px"/><path d="M580.7,384.12s3.18,3,0,4.12-67,25.58-67,25.58-5.3,1.46-16.42.49-92.69-12.13-92.69-12.13-5.83-1.94-3.18-3.88" transform="translate(-3.2)" style="fill:none;stroke:#868b91;stroke-miterlimit:10;stroke-width:3px"/><path d="M580.7,418.56s3.18,3,0,4.12-67,25.58-67,25.58-5.3,1.46-16.42.49-92.69-12.13-92.69-12.13-5.83-1.94-3.18-3.88" transform="translate(-3.2)" style="fill:none;stroke:#868b91;stroke-miterlimit:10;stroke-width:3px"/><line x1="553.2" y1="330.56" x2="553.4" y2="466.21" style="fill:none;stroke:#868b91;stroke-miterlimit:10;stroke-width:3px"/><line x1="536.25" y1="336.38" x2="536.45" y2="472.03" style="fill:none;stroke:#868b91;stroke-miterlimit:10;stroke-width:3px"/><line x1="520.36" y1="342.2" x2="520.56" y2="477.85" style="fill:none;stroke:#868b91;stroke-miterlimit:10;stroke-width:3px"/><path d="M522.43,473l-10.06,5a23.16,23.16,0,0,1-12.18,1.51c-6.89-1-13.77-2.51-13.77-2.51s-4.77.84-4.24-8.88V453.41l17.14,2.9s15.7,1.62,23.11-4.41Z" transform="translate(-3.2)" style="fill:#4f4f4f"/><line x1="464.38" y1="344.41" x2="464.41" y2="480.27" style="fill:none;stroke:#868b91;stroke-miterlimit:10;stroke-width:3px"/><line x1="434.72" y1="340.53" x2="434.75" y2="476.39" style="fill:none;stroke:#868b91;stroke-miterlimit:10;stroke-width:3px"/><path d="M423.92,447.38s-23.84-1.49-22.25-4,1.06,16.94,1.06,16.94-.53,2.49,3.71,6.48a35.14,35.14,0,0,0,4.77,1.49c3.71,1,19,3.12,19,3.12s-7.13-1.63-6.42-12.09S423.92,447.38,423.92,447.38Z" transform="translate(-3.2)" style="fill:#4f4f4f"/><path d="M428.68,475.18l-1.06,5.34L416,484.88s-16.95-1-16.42-3.4,0-12.61,0-12.61Z" transform="translate(-3.2)" style="fill:#3f5494"/><path d="M522.6,480.52l.37,3.91-2.58,2.14v8.58l-8.77,3.75s-18.05,1.61-23.72-1.07l-1-9.11-3.09-1.61v-4.83l9.8,1.07S518.1,483.58,522.6,480.52Z" transform="translate(-3.2)" style="fill:#3f5494"/><polyline points="406.12 335.5 406.15 472.87 491.94 484.56 492.48 484.63 492.48 485.12" style="fill:none;stroke:#868b91;stroke-miterlimit:10;stroke-width:3px"/><path d="M406.7,465.72s-15.36,2.91,2.65,6.79" transform="translate(-3.2)" style="fill:none;stroke:#868b91;stroke-miterlimit:10;stroke-width:3px"/><path d="M574.61,316.34l-1.59-.2L481.39,304.7s-12.71-1-18.54,2.91l-57.73,22.8s-6.36,1,0,3.88,90.57,12.61,90.57,12.61,19.07,2.43,26.48-3.4L581,320.71a2.9,2.9,0,0,0-2.65-3.88Z" transform="translate(-3.2)" style="fill:none;stroke:#868b91;stroke-miterlimit:10;stroke-width:3px"/><polyline points="570.38 319.74 570.38 316.46 570.35 320.22" style="fill:none;stroke:#868b91;stroke-miterlimit:10;stroke-width:3px"/><path d="M544.76,312.61l-.08,4Z" transform="translate(-3.2)" style="fill:none;stroke:#868b91;stroke-miterlimit:10;stroke-width:3px"/><path d="M516.16,309.22l-.08,4Z" transform="translate(-3.2)" style="fill:none;stroke:#868b91;stroke-miterlimit:10;stroke-width:3px"/><path d="M488.09,305.34l-.08,4Z" transform="translate(-3.2)" style="fill:none;stroke:#868b91;stroke-miterlimit:10;stroke-width:3px"/><line x1="456.47" y1="309.06" x2="456.47" y2="315.37" style="fill:none;stroke:#868b91;stroke-miterlimit:10;stroke-width:3px"/><line x1="440.05" y1="315.61" x2="440.05" y2="321.92" style="fill:none;stroke:#868b91;stroke-miterlimit:10;stroke-width:3px"/><line x1="424.16" y1="321.43" x2="424.16" y2="327.74" style="fill:none;stroke:#868b91;stroke-miterlimit:10;stroke-width:3px"/><polygon points="579.09 454.81 579.09 469.85 573.26 471.79 573.26 464.51 571.14 464.51 571.14 458.69 579.09 454.81" style="fill:#3a4d87"/><polygon points="563.73 460.15 555.25 459.18 550.05 460.91 550.48 464.03 555.25 463.54 555.25 469.85 573.26 471.79 573.26 464.51 571.14 463.84 571.14 458.69 563.73 460.15" style="fill:#364984"/><polygon points="554.72 466.45 555.25 470.33 552.6 472.27 552.6 481 539.36 485.85 539.36 478.09 537.77 478.09 537.77 474.21 537.77 473.24 554.72 466.45" style="fill:#364984"/><polygon points="537.77 473.24 537.77 478.09 528.77 477.61 537.77 473.24" style="fill:#3a4d87"/><polygon points="568.49 459.66 559.84 458.85 567.13 455.78 572.73 453.36 576.61 454.44 575.38 457.24 568.49 459.66" style="fill:#1f263f"/><polyline points="539.36 478.09 528.77 477.61 529.3 484.4 539.36 485.85" style="fill:#3a4d87"/><path d="M495.66,348.29l0,135.87.88.16c14.47,2.48,27.2-4,27.2-4s49.26-19.89,55.09-22.8-2.91-4.12-2.91-4.12l-1.91-.24-2.6-.49" transform="translate(-3.2)" style="fill:none;stroke:#868b91;stroke-miterlimit:10;stroke-width:3px"/><path d="M580.55,430.07l-11.45,5.67S570,456.8,566,457.62s13.39-3.31,15.8-11Z" transform="translate(-3.2)" style="fill:#4f4f4f"/><line x1="569.62" y1="324.74" x2="569.82" y2="460.39" style="fill:none;stroke:#868b91;stroke-miterlimit:10;stroke-width:3px"/><path d="M465.76,464.39s1.86-8-11.78-10.47-15.23,6.22-15.23,6.22V467l3.71,3.85s5.83-2.43,5.83-3.88-7.95-1.94-7.95-1.94l-.53-2.91,10.59,1S456.23,452.63,465.76,464.39Z" transform="translate(-3.2)" style="fill:#abadad;opacity:0.7000000000000001"/><path d="M465.76,465s-3.7-6.1-8.73-6.2a6.9,6.9,0,0,0-6.63,4.26s4.24,1.46,4.24,2.43,1.59,0,1.59,0a4,4,0,0,1,5.3,2.43s-.53,3.88-3.18,2.91l-1.06,1.46,8.47.49Z" transform="translate(-3.2)" style="fill:#faf9fc"/><path d="M454.64,465.48s-3.18-2.43-4.24-2.43-10.59-1-10.59-1l.53,2.91s9,.49,7.95,1.94,5.83,0,5.83,0Z" transform="translate(-3.2)" style="fill:#014988"/><path d="M457.81,469.36a1.49,1.49,0,0,1,0-2.43,1.65,1.65,0,0,1,2.12.49,1.38,1.38,0,0,1-.53,1.94A1.61,1.61,0,0,1,457.81,469.36Z" transform="translate(-3.2)" style="fill:#cbced1"/><path d="M455.7,466.94" transform="translate(-3.2)" style="fill:none;stroke:#95918e;stroke-miterlimit:10;stroke-width:2px"/><path d="M456.23,465.48s1.49-.94,3.92.5.45,4.24.45,4.24-1.19,1.08-2.25.59l-1.06,1.46s-6.36,3.88-9,3.4c0,0,1.7-4.71-3.39-6l3.39-2.74s-.66.81.73.65,5.1-.65,5.1-.65l.31-.85Z" transform="translate(-3.2)" style="fill:#95918e;opacity:0.7000000000000001"/><ellipse cx="442.17" cy="473.97" rx="3.44" ry="3.15" style="fill:#fc5a53"/></g><polygon points="155.95 406.93 162.76 411.99 164.06 420.9 160.95 420.34 161.65 418.22 160.92 413.27 156.11 411.45 154.99 408.41 155.95 406.93" style="fill:#787d92"/><path d="M129.22,151.5s0-5,4-3" transform="translate(-3.2)" style="fill:#96959b"/><path d="M78.22,126.5" transform="translate(-3.2)" style="fill:#757577"/><path d="M129.26,142.58l0-3.08a2,2,0,0,1,2-2h4l.17,2.71s-1.17,1.29-2.17,2.29S129.26,142.58,129.26,142.58Z" transform="translate(-3.2)" style="fill:#7f838c"/><path d="M129.22,151.5s0-3,2-3h2s0,1,2,1h1v-4h-2l-1,1h-2v-1l-2-1Z" transform="translate(-3.2)" style="fill:#99989e"/><path d="M129.22,144.5h-1v-2h5s1-3,3-2v1h4v3l-4,1h-2l-1,1h-2v-1Z" transform="translate(-3.2)" style="fill:#605c59"/><path d="M133.22,148.5s0,1,3,1h2v2h-9Z" transform="translate(-3.2)" style="fill:#96959b"/><path d="M138.72,166.75s6.5-1.25,5.32,3.75,1.18,22,1.18,22a10.92,10.92,0,0,1-3.84.25C139.31,192.5,138.72,166.75,138.72,166.75Z" transform="translate(-3.2)" style="fill:#7a7a7c"/><polygon points="169.35 568.16 172.01 567.5 173.01 584.5 171.35 584.66 169.35 568.16" style="fill:#737479"/><polygon points="156.01 413.98 158.82 412.66 160.89 413.6 162.01 419.24 160.89 421.5 157.32 420.75 156.01 413.98" style="fill:#5b5a62"/><polygon points="130.75 169.12 127.35 168.24 128.48 192.51 130.67 192.75 130.75 169.12" style="fill:#7a7a7c"/><path d="M129.22,151.5s2,2,2,3,4,52,4,52l2,28,4,42,3,37,9,101,8,91,8,88h6l-37-442Z" transform="translate(-3.2)" style="fill:#828483"/><circle cx="139.01" cy="171.5" r="1" style="fill:#9f9fa0"/><polygon points="166.85 595.41 167.01 597.5 172.01 597.5 172.01 595.25 166.85 595.41" style="fill:#818592"/><circle cx="140.01" cy="189.5" r="1" style="fill:#9f9fa0"/><polygon points="172.01 567.5 170.51 566.83 171.01 564.5 175.01 567.5 176.01 587.5 173.01 584.5 172.01 567.5" style="fill:#95989f"/><path d="M169.22,593.5h7a1.39,1.39,0,0,1,0,2h-7A1.39,1.39,0,0,1,169.22,593.5Z" transform="translate(-3.2)" style="fill:#363e4c"/><polygon points="126.95 384.61 133.76 389.48 135.06 398.02 131.95 397.49 132.65 395.45 131.92 390.7 127.11 388.96 125.99 386.04 126.95 384.61" style="fill:#787d92"/><path d="M100.22,139.49s0-4.8,4-2.88" transform="translate(-3.2)" style="fill:#96959b"/><path d="M49.22,115.5" transform="translate(-3.2)" style="fill:#757577"/><path d="M100.26,130.93l0-3a1.91,1.91,0,0,1,2-1.92h4l.17,2.6s-1.17,1.24-2.17,2.2S100.26,130.93,100.26,130.93Z" transform="translate(-3.2)" style="fill:#7f838c"/><path d="M100.22,139.49s0-2.88,2-2.88h2s0,1,2,1h1v-3.84h-2l-1,1h-2v-1l-2-1Z" transform="translate(-3.2)" style="fill:#99989e"/><path d="M100.22,132.77h-1v-1.92h5s1-2.88,3-1.92v1h4v2.88l-4,1h-2l-1,1h-2v-1Z" transform="translate(-3.2)" style="fill:#605c59"/><path d="M104.22,136.61s0,1,3,1h2v1.92h-9Z" transform="translate(-3.2)" style="fill:#96959b"/><path d="M109.72,154.12s6.5-1.2,5.32,3.6,1.18,21.11,1.18,21.11a11.36,11.36,0,0,1-3.84.24C110.31,178.83,109.72,154.12,109.72,154.12Z" transform="translate(-3.2)" style="fill:#7a7a7c"/><polygon points="140.35 539.35 143.01 538.71 144.01 555.02 142.35 555.18 140.35 539.35" style="fill:#737479"/><polygon points="127.01 391.38 129.82 390.12 131.89 391.02 133.01 396.43 131.89 398.6 128.32 397.88 127.01 391.38" style="fill:#5b5a62"/><polygon points="101.75 156.4 98.35 155.56 99.48 178.85 101.67 179.08 101.75 156.4" style="fill:#7a7a7c"/><path d="M100.22,139.49s2,1.92,2,2.88,4,49.9,4,49.9l2,26.87,4,40.31,3,35.51,9,96.93,8,87.33,8,84.45h6l-37-424.17Z" transform="translate(-3.2)" style="fill:#828483"/><ellipse cx="110.01" cy="158.68" rx="1" ry="0.96" style="fill:#9f9fa0"/><polygon points="137.85 565.5 138.01 567.5 143.01 567.5 143.01 565.34 137.85 565.5" style="fill:#818592"/><ellipse cx="111.01" cy="175.96" rx="1" ry="0.96" style="fill:#9f9fa0"/><polygon points="143.01 538.71 141.51 538.07 142.01 535.83 146.01 538.71 147.01 557.9 144.01 555.02 143.01 538.71" style="fill:#95989f"/><path d="M140.22,563.66h7a1.29,1.29,0,0,1,0,1.92h-7A1.29,1.29,0,0,1,140.22,563.66Z" transform="translate(-3.2)" style="fill:#363e4c"/><polygon points="103.95 365.66 110.76 370.42 112.06 378.77 108.95 378.25 109.65 376.26 108.92 371.62 104.11 369.91 102.99 367.06 103.95 365.66" style="fill:#787d92"/><path d="M77.22,126s0-4.69,4-2.82" transform="translate(-3.2)" style="fill:#96959b"/><path d="M26.22,102.5" transform="translate(-3.2)" style="fill:#757577"/><path d="M77.26,117.59l0-2.89a1.88,1.88,0,0,1,2-1.88h4l.17,2.54s-1.17,1.21-2.17,2.15S77.26,117.59,77.26,117.59Z" transform="translate(-3.2)" style="fill:#7f838c"/><path d="M77.22,126s0-2.82,2-2.82h2s0,.94,2,.94h1v-3.75h-2l-1,.94h-2v-.94l-2-.94Z" transform="translate(-3.2)" style="fill:#99989e"/><path d="M77.22,119.39h-1v-1.88h5s1-2.82,3-1.88v.94h4v2.82l-4,.94h-2l-1,.94h-2v-.94Z" transform="translate(-3.2)" style="fill:#605c59"/><path d="M81.22,123.14s0,.94,3,.94h2V126h-9Z" transform="translate(-3.2)" style="fill:#96959b"/><path d="M86.72,140.27s6.5-1.17,5.32,3.52,1.18,20.65,1.18,20.65a11.61,11.61,0,0,1-3.84.23C87.31,164.43,86.72,140.27,86.72,140.27Z" transform="translate(-3.2)" style="fill:#7a7a7c"/><polygon points="117.35 516.97 120.01 516.34 121.01 532.3 119.35 532.45 117.35 516.97" style="fill:#737479"/><polygon points="104.01 372.28 106.83 371.04 108.89 371.93 110.01 377.22 108.89 379.33 105.33 378.63 104.01 372.28" style="fill:#5b5a62"/><polygon points="78.75 142.5 75.35 141.67 76.48 164.45 78.67 164.68 78.75 142.5" style="fill:#7a7a7c"/><path d="M77.22,126s2,1.88,2,2.82,4,48.8,4,48.8l2,26.28,4,39.41,3,34.72,9,94.78,8,85.4,8,82.58h6L86.22,126Z" transform="translate(-3.2)" style="fill:#828483"/><ellipse cx="87.01" cy="144.73" rx="1" ry="0.94" style="fill:#9f9fa0"/><polygon points="114.85 542.54 115.01 544.5 120.01 544.5 120.01 542.38 114.85 542.54" style="fill:#818592"/><ellipse cx="88.01" cy="161.62" rx="1" ry="0.94" style="fill:#9f9fa0"/><polygon points="120.01 516.34 118.51 515.72 119.01 513.53 123.01 516.34 124.01 535.11 121.01 532.3 120.01 516.34" style="fill:#95989f"/><path d="M117.22,540.74h7a1.25,1.25,0,0,1,0,1.88h-7A1.25,1.25,0,0,1,117.22,540.74Z" transform="translate(-3.2)" style="fill:#363e4c"/><polygon points="79.02 346.11 85.84 350.63 87.15 358.59 84.04 358.1 84.73 356.2 84 351.78 79.19 350.16 78.06 347.45 79.02 346.11" style="fill:#787d92"/><path d="M51.89,117.85s0-4.47,4-2.69" transform="translate(-3.2)" style="fill:#96959b"/><path d="M.85,95.6" transform="translate(-3.2)" style="fill:#757577"/><path d="M51.91,109.88l0-2.76a1.82,1.82,0,0,1,2-1.79h4l.17,2.42s-1.16,1.16-2.16,2.05S51.91,109.88,51.91,109.88Z" transform="translate(-3.2)" style="fill:#7f838c"/><path d="M51.89,117.85s0-2.68,2-2.69h2s0,.89,2,.89h1v-3.58h-2l-1,.9h-2v-.89l-2-.89Z" transform="translate(-3.2)" style="fill:#99989e"/><path d="M51.87,111.6h-1v-1.79h5s1-2.68,3-1.79v.89h4v2.68l-4,.9h-2l-1,.9h-2v-.89Z" transform="translate(-3.2)" style="fill:#605c59"/><path d="M55.88,115.17s0,.89,3,.89h2v1.79l-9,0Z" transform="translate(-3.2)" style="fill:#96959b"/><path d="M61.41,131.47s6.5-1.13,5.32,3.34,1.22,19.66,1.22,19.66a12.17,12.17,0,0,1-3.84.23C62,154.48,61.41,131.47,61.41,131.47Z" transform="translate(-3.2)" style="fill:#7a7a7c"/><polygon points="81.51 427.75 74.01 426.5 68.01 420.5 68.01 424.5 75.01 431.5 78.01 431.5 82.01 435.5 81.51 427.75" style="fill:#848790"/><polygon points="92.67 490.21 95.33 489.61 96.36 504.81 94.69 504.96 92.67 490.21" style="fill:#737479"/><polygon points="79.09 352.42 81.9 351.24 83.97 352.07 85.1 357.11 83.98 359.13 80.42 358.46 79.09 352.42" style="fill:#5b5a62"/><polygon points="53.45 133.6 50.05 132.82 51.21 154.51 53.41 154.72 53.45 133.6" style="fill:#7a7a7c"/><path d="M51.89,117.85s2,1.78,2,2.68S58,167,58,167l2,25,4.07,37.53,3.06,33.07,9.16,90.26,8.14,81.33,8.14,78.64h6l-37.69-395Z" transform="translate(-3.2)" style="fill:#828483"/><ellipse cx="64.92" cy="135.71" rx="1" ry="0.89" transform="translate(-3.44 0.11) rotate(-0.1)" style="fill:#9f9fa0"/><polygon points="90.21 514.57 90.38 516.43 95.38 516.43 95.38 514.41 90.21 514.57" style="fill:#818592"/><ellipse cx="65.94" cy="151.8" rx="1" ry="0.89" transform="translate(-3.47 0.12) rotate(-0.1)" style="fill:#9f9fa0"/><polygon points="95.33 489.61 93.83 489.02 94.33 486.93 98.33 489.61 99.37 507.48 96.36 504.81 95.33 489.61" style="fill:#95989f"/><path d="M92.58,512.86h7a1.15,1.15,0,0,1,0,1.79h-7A1.15,1.15,0,0,1,92.58,512.86Z" transform="translate(-3.2)" style="fill:#363e4c"/><polygon points="105.51 450.75 98.01 449.5 92.01 443.5 92.01 447.5 99.01 454.5 102.01 454.5 106.01 458.5 105.51 450.75" style="fill:#848790"/><polygon points="136.51 490.25 144.01 491.5 150.01 497.5 150.01 493.5 143.01 486.5 140.01 486.5 136.01 482.5 136.51 490.25" style="fill:#848790"/><polygon points="165.51 517.25 173.01 518.5 179.01 524.5 179.01 520.5 172.01 513.5 169.01 513.5 165.01 509.5 165.51 517.25" style="fill:#848790"/></g></g></svg>