<?xml version="1.0" encoding="utf-8"?>
<!-- Generator: Adobe Illustrator 21.1.0, SVG Export Plug-In . SVG Version: 6.00 Build 0)  -->
<svg version="1.1" id="Layer_1" xmlns="http://www.w3.org/2000/svg" xmlns:xlink="http://www.w3.org/1999/xlink" x="0px" y="0px"
	 viewBox="0 0 950.7 660.5" style="enable-background:new 0 0 950.7 660.5;" xml:space="preserve">
<style type="text/css">
	.st0{fill:#626264;}
	.st1{fill:#1E4729;}
	.st2{fill:#97989A;}
	.st3{fill:#717173;}
	.st4{fill:#3C3C3A;}
	.st5{fill:#6A6A6C;}
	.st6{fill:#8C8C8C;}
	.st7{fill:#7B7B7D;}
	.st8{fill:#444444;}
	.st9{fill:#5C5C5E;}
	.st10{fill:#7E7E80;}
	.st11{fill:#6F6F71;}
	.st12{fill:#373737;}
	.st13{fill:#676769;}
	.st14{fill:#808082;}
	.st15{fill:#2F2F30;}
	.st16{fill:#68696B;}
	.st17{fill:#7F7F81;}
	.st18{fill:#6B6B6D;}
	.st19{fill:#333333;}
	.st20{fill:#6C6C6D;}
	.st21{fill:#7C7C7E;}
	.st22{fill:#275936;}
	.st23{fill:#59595B;}
	.st24{fill:#363638;}
	.st25{fill:#767678;}
	.st26{fill:#5B5B5D;}
	.st27{fill:#5E5E60;}
	.st28{fill:#222222;}
	.st29{fill:#356841;}
	.st30{fill:#4B7D58;}
	.st31{fill:#555557;}
	.st32{fill:#828284;}
	.st33{fill:#161C3A;}
	.st34{fill:#26366C;}
	.st35{opacity:0.85;fill:#252429;enable-background:new    ;}
	.st36{fill:#2D3D79;}
	.st37{fill:#285B36;}
	.st38{fill:#B3B7BA;}
	.st39{fill:#FAFBFE;}
	.st40{fill:#C1C1C5;}
	.st41{fill:#898A8B;}
	.st42{fill:none;stroke:#868B91;stroke-width:3;stroke-miterlimit:10;}
	.st43{fill:#4F4F4F;}
	.st44{fill:#3F5494;}
	.st45{fill:#3A4D87;}
	.st46{fill:#364984;}
	.st47{fill:#1F263F;}
	.st48{opacity:0.7;fill:#ABADAD;}
	.st49{fill:#FAF9FC;}
	.st50{fill:#014988;}
	.st51{fill:#CBCED1;}
	.st52{fill:none;stroke:#95918E;stroke-width:2;stroke-miterlimit:10;}
	.st53{opacity:0.7;fill:#95918E;}
	.st54{fill:#FC5A53;}
	.st55{fill:#383838;}
	.st56{fill:#606060;}
	.st57{fill:#6A6B6A;}
	.st58{fill:#818181;}
	.st59{fill:none;stroke:#B1B1B2;stroke-width:2;stroke-miterlimit:10;}
	.st60{opacity:0.5;fill:#686868;}
</style>
<title>container</title>
<g id="Layer_2">
	<g id="Layer_1-2">
		<polygon class="st0" points="181.4,156.1 202.8,155.8 219.9,433.3 202.7,435.1 		"/>
		<polygon class="st1" points="18.2,86 692.2,12 930.2,45 191.2,153 174.2,153 		"/>
		<polygon class="st2" points="897.2,54 911.2,52 875.2,387 862.8,385.3 		"/>
		<polygon class="st3" points="897.2,54 889.2,55 855,382.8 863.2,385 		"/>
		<polygon class="st4" points="889.2,55 855.2,383 851.2,380 884.2,56 		"/>
		<polygon class="st5" points="851.2,380 884.2,56 878.2,57 846,374.4 		"/>
		<polygon class="st6" points="834.7,373 837.2,373 842.2,374 845.2,374 845.6,374.2 845.9,374.3 846,374.4 878.2,57 865.2,58.7 		
			"/>
		<polyline class="st7" points="834.7,373 832.2,373 827.2,370.9 857,59.6 865.2,58.7 		"/>
		<polygon class="st8" points="827.2,370.9 825.2,370 822.2,366 852.2,60.5 857,59.6 		"/>
		<polygon class="st9" points="852.2,60.5 846.7,61.5 818.2,364 822.2,366 		"/>
		<polygon class="st10" points="818.2,364 806.2,363 834.2,63 846.7,61.5 		"/>
		<polygon class="st11" points="806.2,363 799.2,361 827.2,64.5 834.2,63 		"/>
		<polygon class="st12" points="799.2,361 795.2,356 822.2,64.5 827.2,64.5 		"/>
		<polygon class="st13" points="795.2,356 792.2,354 817.7,66 822.2,64.5 		"/>
		<polygon class="st14" points="792.2,354 781.7,353 805.2,67.5 817.7,66 		"/>
		<polygon class="st13" points="781.7,353 779.2,353 774.7,350.6 797.8,68.9 805.2,67.5 		"/>
		<polygon class="st15" points="774.7,350.6 773.2,350 770.3,347.5 793,69.5 797.8,68.9 		"/>
		<polygon class="st16" points="770.3,347.5 769.2,346 765.8,344.5 788.2,70.7 793,69.5 		"/>
		<polygon class="st17" points="765.8,344.5 764.2,344 756.7,344 777.3,71.7 788.2,70.7 		"/>
		<polygon class="st18" points="756.7,344 749.2,341 770.2,72.5 777.3,71.7 		"/>
		<polygon class="st0" points="207.2,425 667.2,299 672.5,316.3 208.5,450.3 		"/>
		<polygon class="st19" points="749.2,341 745.7,337.5 764.7,73.2 770.2,72.5 		"/>
		<polygon class="st20" points="745.7,337.5 740.2,334 760.5,73.7 764.7,73.2 		"/>
		<polygon class="st21" points="740.2,334 731.2,334 749.5,75.3 760.5,73.7 		"/>
		<polygon class="st22" points="223.2,636 208.2,436 672.2,309 676.2,311 679.2,315 684.2,317 695.2,317 699.2,319 701.2,322 
			707.2,324 716.2,325 718.2,325 723.2,327 725.2,332 731.2,334 740.2,334 744.2,336 749.2,341 755.2,344 764.2,344 769.2,346 
			773.2,350 779.2,353 792.2,354 795.2,356 799.2,361 806.2,363 818.2,364 822.2,366 825.2,370 832.2,373 837.2,373 842.2,374 
			845.2,374 849.2,376 851.2,380 853.2,382 860.2,385 875.2,387 883.2,392 		"/>
		<polygon class="st23" points="731.2,334 725.2,332 743.2,76 749.5,75.3 		"/>
		<polygon class="st24" points="725.2,332 723.2,327 738.7,76.2 743.2,76 		"/>
		<polygon class="st9" points="723.2,327 718.2,325 734.7,77.5 738.7,76.2 		"/>
		<polygon class="st25" points="718.2,325 708.9,324.2 723.2,79 734.7,77.5 		"/>
		<polygon class="st23" points="708.9,324.2 707.2,324 702.8,322.5 717.4,80.5 723.2,79 		"/>
		<polygon class="st19" points="702.8,322.5 701.2,322 699.2,319 713.2,80.6 717.4,80.5 		"/>
		<polygon class="st26" points="699.2,319 695.2,317 708.7,81.5 713.2,80.6 		"/>
		<polygon class="st3" points="695.2,317 685.5,317.1 698.8,83.1 708.7,81.5 		"/>
		<polygon class="st27" points="685.5,317.1 679.2,315 692.3,83.7 698.8,83.1 		"/>
		<polygon class="st28" points="679.2,315 676.2,311 688.4,84 692.3,83.7 		"/>
		<polygon class="st29" points="223.2,636 223.7,657 882.7,410.5 883.2,392 		"/>
		<polygon class="st1" points="875.2,387 883.2,392 886.5,393.2 924.5,50.5 911.2,52 		"/>
		<polygon class="st1" points="886.5,393.2 885.9,411.6 882.7,410.5 883.2,392 		"/>
		<polygon class="st1" points="886.5,395.8 899.7,391.8 898.3,407.8 885.9,411.6 		"/>
		<ellipse transform="matrix(0.8853 -0.465 0.465 0.8853 -84.3486 461.1841)" cx="892.8" cy="401.6" rx="2.2" ry="2.4"/>
		<polygon class="st29" points="885.5,395.8 898.7,391.8 936.3,61.2 922.5,62 		"/>
		<polygon class="st1" points="923.5,62 938.7,60.7 940.2,42.2 923.5,40.2 911.5,42.5 930.2,45 924.2,45.7 		"/>
		<ellipse transform="matrix(0.1321 -0.9912 0.9912 0.1321 758.5938 971.6661)" cx="934.2" cy="52.6" rx="4.7" ry="2.4"/>
		<polygon class="st30" points="924.2,45.7 191.2,153 188.4,153 188.9,156 189.2,157.7 924.5,50.5 		"/>
		<polygon class="st30" points="159.8,183.7 188.5,179 223.2,636 223.2,640.3 201.2,651 193.8,648.3 		"/>
		<polygon class="st1" points="189.4,153 189.5,179 160.8,183.7 145.5,176.3 145.5,149 161.5,145.7 		"/>
		<ellipse transform="matrix(0.9983 -5.895792e-02 5.895792e-02 0.9983 -9.5453 10.4608)" cx="172.5" cy="167" rx="4.7" ry="9.2"/>
		<polygon class="st31" points="676.2,311 672.2,309 685.5,85.7 688.5,85.2 		"/>
		<polygon class="st18" points="666.9,310.5 672.2,309 685.5,85.7 679.9,86.2 		"/>
		<polygon class="st32" points="666.9,310.5 661.9,312 675.4,87 679.9,86.2 		"/>
		<polygon class="st32" points="644.4,317 649.4,315.7 658.2,90 652.7,90.7 		"/>
		<polygon class="st32" points="621.4,322.3 626.4,321.1 635.2,93 629.7,93.8 		"/>
		<polygon class="st32" points="598.1,329 603.1,327.7 611.8,96.7 606.3,97.4 		"/>
		<polygon class="st32" points="572.4,336 577.4,334.7 586.2,100 580.7,100.8 		"/>
		<polygon class="st32" points="546.8,343.7 551.8,342.3 560.5,104 555,104.8 		"/>
		<polygon class="st32" points="520.6,350.8 525.6,349.4 530.4,107.4 524.9,108.2 		"/>
		<polygon class="st32" points="495.3,357.1 500.2,355.7 505.1,112.4 499.6,113.3 		"/>
		<polygon class="st32" points="467,365.8 472,364.3 475.4,116.3 469.9,117.3 		"/>
		<polygon class="st32" points="439.5,372.7 444.4,371.2 444,120.8 438.5,121.8 		"/>
		<polygon class="st32" points="411,379.7 416,378.1 412.6,125.3 407.1,126.4 		"/>
		<polygon class="st32" points="381.6,387.9 386.5,386.2 382.2,129.3 376.8,130.4 		"/>
		<polygon class="st32" points="350.7,397.9 355.6,396.1 349.4,134.3 343.9,135.4 		"/>
		<polygon class="st32" points="319.8,405.3 324.7,403.5 315.4,139.8 310,141 		"/>
		<polygon class="st32" points="287.2,414.5 292,412.6 280.4,144.3 275,145.6 		"/>
		<polygon class="st32" points="254.2,423 259,421.1 243.8,148.9 238.4,150.2 		"/>
		<polygon class="st32" points="219.1,433.6 224,431.7 208.2,155.4 202.8,156.8 		"/>
		<polygon class="st0" points="658.2,90 675.4,87 661.9,312 649.4,315.7 		"/>
		<polygon class="st0" points="635.2,93 652.7,90.7 644.4,317 626.4,321.1 		"/>
		<polygon class="st0" points="611.8,96.7 629.7,93.8 621.4,322.3 603.1,327.7 		"/>
		<polygon class="st0" points="586.2,100 606.3,97.4 598.1,329 577.4,334.7 		"/>
		<polygon class="st0" points="560.5,104 580.7,100.8 572.4,336 551.8,342.3 		"/>
		<polygon class="st0" points="530.4,107.4 555,104.8 546.8,343.7 525.6,349.4 		"/>
		<polygon class="st0" points="505.1,112.4 524.9,108.2 520.6,350.8 500.2,355.7 		"/>
		<polygon class="st0" points="475.4,116.3 499.6,113.3 495.3,357.1 472,364.3 		"/>
		<polygon class="st0" points="469.9,117.3 444,120.8 444.4,371.2 467,365.8 		"/>
		<polygon class="st0" points="412.6,125.3 438.5,121.8 439.5,372.7 416,378.1 		"/>
		<polygon class="st0" points="382.2,129.3 407.1,126.4 411,379.7 386.5,386.2 		"/>
		<polygon class="st0" points="349.4,134.3 376.8,130.4 381.6,387.9 355.6,396.1 		"/>
		<polygon class="st0" points="315.4,139.8 343.9,135.4 350.7,397.9 324.7,403.5 		"/>
		<polygon class="st0" points="280.4,144.3 310,141 319.8,405.3 292,412.6 		"/>
		<polygon class="st0" points="243.8,148.9 275,145.6 287.2,414.5 259,421.1 		"/>
		<polygon class="st0" points="238.4,150.2 254.2,423 224,431.7 208.2,155.4 		"/>
		<polygon class="st1" points="223.2,640.3 224.2,663 195.7,672.5 184.2,660 182.7,638 192.2,635.5 193.8,648.3 201.2,651 		"/>
		<ellipse transform="matrix(0.9933 -0.1156 0.1156 0.9933 -74.4735 28.7629)" cx="210.7" cy="656.3" rx="5.5" ry="5.6"/>
		<polygon class="st1" points="192.5,630.7 192.2,620.5 160.8,589.2 61.7,487.8 63,503.3 65.3,505.3 65.5,498.3 76.3,507.2 
			76.5,516 79,518.8 183.3,630.3 184.3,623.5 		"/>
		<polygon class="st33" points="61.7,487.8 53.2,480 52,470.9 53.3,471.1 54,478.2 76.9,500.9 118.4,544.1 79.9,143.7 83.4,143.7 
			122,546.5 189.4,617.7 188.7,620 		"/>
		<polygon class="st33" points="189.4,617.7 192.2,620.5 192.3,622.5 188.7,620 		"/>
		<polygon class="st29" points="53.3,471.1 57,471.5 57.2,463.3 58.3,461.3 189.7,588.5 192.2,620.5 54,478.2 		"/>
		<polygon class="st30" points="58.3,461.3 58.9,457.5 64.4,446.7 186.8,554.5 189.7,588.5 		"/>
		<polygon class="st34" points="64.4,446.7 64,435.2 69.9,439.6 70.9,445.4 72.5,446.5 73.2,454.9 		"/>
		<polygon class="st1" points="55.2,429.9 61.2,434.5 64,435.2 64.4,446.7 58.9,457.5 58.3,461.3 57.2,463.3 		"/>
		<polygon class="st30" points="189.2,156.7 189.2,162 923.2,54.7 924.5,49.5 		"/>
		<polygon class="st1" points="39.3,280.8 45.5,270 44,257.3 35.7,248.7 37.8,280.7 		"/>
		<polygon class="st1" points="41.8,295.5 49.3,303.7 50.2,315 43.5,326.8 40.2,293.8 		"/>
		<polygon class="st1" points="46.3,340.8 54.3,347.5 55.2,360.3 49.5,371.3 		"/>
		<polygon class="st35" points="145.9,167.2 123.5,157.1 92.8,142.2 17.5,105.1 10.8,105.4 11.3,117.9 49.5,456.7 53.2,480 
			54,478.2 12.9,118.2 12.8,111 145.5,176.3 		"/>
		<polygon class="st1" points="34.2,160.5 14.2,146 26.2,214 53.2,466.7 62.2,465.7 		"/>
		<polygon class="st1" points="40.5,482.9 53.2,480 11.3,117.9 10.8,105.4 -0.6,106.2 -3.5,104.5 -3.1,118.4 -1.1,118.2 		"/>
		<path class="st36" d="M12.4,240.5"/>
		<polygon class="st37" points="12.8,111 160.8,183.7 163.2,221.5 14.2,146 		"/>
		<polygon class="st30" points="145.9,169.2 17.5,105.1 18.2,85.3 161.5,147 145.5,150.4 		"/>
		<polygon class="st1" points="17.5,105.1 18.2,85.3 25.5,85.7 24.5,81.7 18.2,78 -10.5,80.7 -7.2,102.7 -0.6,106.2 		"/>
		<path class="st1" d="M-1.7,120h13.4c0,0,4.2,0.8,4.2,3.6s0.2,8.1,0.2,8.1s-0.1,2-5.1,1.8s-12.2-0.1-12.2-0.1L-1.7,120z"/>
		<polygon class="st1" points="163.2,221.5 164.2,230 34.2,160.5 14.2,146 		"/>
		<polygon class="st1" points="23.2,153 34.2,160.5 34.2,172.5 27.7,183.5 		"/>
		<polygon class="st29" points="34.2,160.5 164.2,230 164.2,246 34.2,172.5 		"/>
		<polygon class="st30" points="34.2,172.5 164.2,246 166.2,265 27.7,183.5 		"/>
		<polygon class="st37" points="27.7,183.5 166.2,265 171.7,342 35.7,248.7 		"/>
		<polygon class="st1" points="35.7,248.7 171.7,342 172.2,349 30.8,253.1 		"/>
		<polygon class="st29" points="172.2,349 173.2,360.5 45.5,270 44.2,262 		"/>
		<polygon class="st30" points="45.5,270 173.2,360.5 174.7,382.5 37.8,280.7 		"/>
		<polygon class="st37" points="37.8,280.7 174.7,382.5 175.7,395.5 40.2,293.8 		"/>
		<polygon class="st1" points="40.2,293.8 175.7,395.5 175.9,399.5 40.2,297 		"/>
		<polygon class="st29" points="14.2,146 23.2,153 57.2,463.3 57,471.5 53.3,471.1 		"/>
		<path class="st1" d="M12.9,241.4h13.4c0,0,4.2,0.8,4.2,3.6s0.2,8.1,0.2,8.1s-0.1,2-5.1,1.8s-12.2-0.1-12.2-0.1L12.9,241.4z"/>
		<path class="st1" d="M25.6,352.7H39c0,0,4.2,0.8,4.2,3.6s0.2,8.1,0.2,8.1s-0.1,2-5.1,1.8s-12.3-0.1-12.3-0.1L25.6,352.7z"/>
		<path class="st1" d="M37.6,456.7H51c0,0,4.2,0.8,4.2,3.6s0.2,8.1,0.2,8.1s-0.1,2-5.1,1.8s-12.2-0.1-12.2-0.1L37.6,456.7z"/>
		<polygon class="st37" points="49.3,303.7 175.9,399.5 176.8,414 50.2,315 		"/>
		<polygon class="st37" points="54.8,354.5 54.3,347.5 178.2,447.2 179.2,456 		"/>
		<polygon class="st30" points="50.2,315 176.8,414 178.2,435 43.5,326.8 		"/>
		<polygon class="st37" points="43.5,326.8 178.2,435 178.8,449.3 46.3,340.8 		"/>
		<polygon class="st1" points="178.8,449.3 46.3,340.8 47.2,344.7 179.5,453.7 		"/>
		<polygon class="st37" points="54.5,351.7 179.5,453.7 180.5,466.3 55.2,360.3 		"/>
		<polygon class="st30" points="55.2,360.3 180.5,466.3 182.2,488.7 47.5,371 		"/>
		<polygon class="st37" points="47.5,371 182.2,488.7 186.8,554.5 64.4,446.7 55.2,429.9 		"/>
		<polygon class="st1" points="63,503.3 47.7,508.5 39.7,503 36.7,483.5 53.2,480 61.7,487.8 		"/>
	</g>
</g>
<path class="st38" d="M228.2,468.8v-4.5v-30.5V406v-23.5c0,0,0.4-3.7,2.5-5l50.8,21.9l-1.7,91.6l-5.8-2.5l-0.4,17.3l-33.8-13.6
	c0,0-5.4-2.1-3.7-19L228.2,468.8z"/>
<path class="st39" d="M281.4,399.4c0,0,5,0.8,11.1,0s67.7-9.9,67.7-9.9v26.8v66.4l-9.9,1.2v13.6c0,0-0.4,5.8-6.2,6.6h-8.3
	c0,0,5.4-3.3,2.9-9.1s-9.5-5.4-9.5-5.4s-7.8-0.8-11.6,6.2v12l-14.9,1.2c0,0,2.1-1.7,2.1-4.1c0-2.5,0-15.3,0-15.3l-9.5,1.7
	c0,0-8.7,2.5-15.7-0.4L281.4,399.4z"/>
<path class="st40" d="M360.2,389.5l3.7-0.4c0,0,4.5-1.2,3.3,18.2v73.4c0,0-2.5,2.5-7,2.1V389.5z"/>
<path class="st41" d="M231.9,375.9l47.7,20.2c0,0,8.4,2.1,20.3,0c11.8-2.1,62-9.5,62-9.5l-51.1-21.8c0,0-3-0.8-7.2,0
	c-4.2,0.8-72.6,10.3-72.6,10.3L231.9,375.9z"/>
<path class="st42" d="M228.2,401.6c0,0-2.5,2.6,0,3.5c2.5,0.9,52.2,21.8,52.2,21.8s4.1,1.2,12.8,0.4c8.7-0.8,72.2-10.3,72.2-10.3
	s4.5-1.7,2.5-3.3"/>
<path class="st42" d="M228.2,429.7c0,0-2.5,2.6,0,3.5c2.5,0.9,52.2,21.8,52.2,21.8s4.1,1.2,12.8,0.4c8.7-0.8,72.2-10.3,72.2-10.3
	s4.5-1.7,2.5-3.3"/>
<path class="st42" d="M228.2,459c0,0-2.5,2.6,0,3.5c2.5,0.9,52.2,21.8,52.2,21.8s4.1,1.2,12.8,0.4c8.7-0.8,72.2-10.3,72.2-10.3
	s4.5-1.7,2.5-3.3"/>
<line class="st42" x1="247.1" y1="384.1" x2="246.9" y2="499.5"/>
<line class="st42" x1="260.3" y1="389" x2="260.1" y2="504.4"/>
<line class="st42" x1="272.7" y1="394" x2="272.5" y2="509.4"/>
<path class="st43" d="M273.6,505.3l7.8,4.3c0,0,4.1,2.1,9.5,1.3c5.4-0.9,10.7-2.1,10.7-2.1s3.7,0.7,3.3-7.6v-12.5l-13.4,2.5
	c0,0-12.2,1.4-18-3.8V505.3z"/>
<line class="st42" x1="316.3" y1="395.9" x2="316.3" y2="511.5"/>
<line class="st42" x1="339.4" y1="392.6" x2="339.4" y2="508.2"/>
<path class="st43" d="M350.3,483.5c0,0,18.6-1.3,17.3-3.4s-0.8,14.4-0.8,14.4s0.4,2.1-2.9,5.5c0,0-0.8,0.4-3.7,1.3
	c-2.9,0.8-14.8,2.7-14.8,2.7s5.6-1.4,5-10.3S350.3,483.5,350.3,483.5z"/>
<path class="st44" d="M346.6,507.1l0.8,4.5l9.1,3.7c0,0,13.2-0.8,12.8-2.9c-0.4-2.1,0-10.7,0-10.7L346.6,507.1z"/>
<path class="st44" d="M273.4,511.7l-0.3,3.3l2,1.8v7.3l6.8,3.2c0,0,14.1,1.4,18.5-0.9l0.8-7.8l2.4-1.4v-4.1l-7.6,0.9
	C296,514.1,276.9,514.3,273.4,511.7z"/>
<polyline class="st42" points="361.7,388.3 361.6,505.2 294.8,515.1 294.4,515.2 294.4,515.6 "/>
<path class="st42" d="M363.7,499.1c0,0,12,2.5-2.1,5.8"/>
<path class="st42" d="M232.9,372l1.2-0.2l71.4-9.7c0,0,9.9-0.8,14.4,2.5l45,19.4c0,0,5,0.8,0,3.3c-5,2.5-70.6,10.7-70.6,10.7
	s-14.9,2.1-20.6-2.9L228,375.7c0,0-0.8-2.9,2.1-3.3C232.9,372,232.9,372,232.9,372z"/>
<polyline class="st42" points="233.7,374.9 233.7,372.1 233.7,375.3 "/>
<path class="st42" d="M256.2,368.8l0.1,3.4L256.2,368.8z"/>
<path class="st42" d="M278.4,365.9l0.1,3.4L278.4,365.9z"/>
<path class="st42" d="M300.3,362.6l0.1,3.4L300.3,362.6z"/>
<line class="st42" x1="322.4" y1="365.8" x2="322.4" y2="371.2"/>
<line class="st42" x1="335.2" y1="371.4" x2="335.2" y2="376.7"/>
<line class="st42" x1="347.6" y1="376.3" x2="347.6" y2="381.7"/>
<polygon class="st45" points="226.9,489.8 226.9,502.6 231.5,504.2 231.5,498.1 233.1,498.1 233.1,493.1 "/>
<polygon class="st46" points="238.9,494.3 245.5,493.5 249.5,495 249.2,497.6 245.5,497.2 245.5,502.6 231.5,504.2 231.5,498.1 
	233.1,497.5 233.1,493.1 "/>
<polygon class="st46" points="245.9,499.7 245.5,503 247.6,504.7 247.6,512.1 257.9,516.2 257.9,509.6 259.1,509.6 259.1,506.3 
	259.1,505.5 "/>
<polygon class="st45" points="259.1,505.5 259.1,509.6 266.1,509.2 "/>
<polygon class="st47" points="235.2,493.9 241.9,493.2 236.2,490.6 231.9,488.6 228.9,489.5 229.8,491.9 "/>
<polyline class="st45" points="257.9,509.6 266.1,509.2 265.7,515 257.9,516.2 "/>
<path class="st42" d="M294.4,399.2l0,115.6c-0.2,0-0.5,0.1-0.7,0.1c-11.3,2.1-21.2-3.4-21.2-3.4s-38.4-16.9-42.9-19.4
	c-4.5-2.5,2.3-3.5,2.3-3.5l1.5-0.2l2-0.4"/>
<path class="st43" d="M228.3,468.8l8.9,4.8c0,0-0.7,17.9,2.4,18.6c3.2,0.7-10.4-2.8-12.3-9.4L228.3,468.8z"/>
<line class="st42" x1="234.3" y1="379.1" x2="234.1" y2="494.5"/>
<path class="st48" d="M317.7,497.9c0,0-1.5-6.8,9.2-8.9c10.6-2.1,11.9,5.3,11.9,5.3v5.8l-2.9,3.3c0,0-4.5-2.1-4.5-3.3
	c0-1.2,6.2-1.7,6.2-1.7l0.4-2.5l-8.3,0.8C329.7,496.8,325.1,487.9,317.7,497.9z"/>
<path class="st49" d="M317.7,498.5c0,0,2.9-5.2,6.8-5.3c3.9-0.1,5.2,3.6,5.2,3.6s-3.3,1.2-3.3,2.1s-1.2,0-1.2,0s-2.9-1.2-4.1,2.1
	c0,0,0.4,3.3,2.5,2.5l0.8,1.2l-6.6,0.4V498.5z"/>
<path class="st50" d="M326.4,498.9c0,0,2.5-2.1,3.3-2.1c0.8,0,8.3-0.8,8.3-0.8l-0.4,2.5c0,0-7,0.4-6.2,1.7c0.8,1.2-4.5,0-4.5,0
	L326.4,498.9z"/>
<path class="st51" d="M323.9,502.2c0.6-0.4,0.7-1.6,0-2.1c-0.5-0.3-1.3-0.2-1.7,0.4c-0.4,0.6-0.1,1.3,0.4,1.7
	C323,502.4,323.5,502.4,323.9,502.2z"/>
<path class="st52" d="M325.5,500.1"/>
<path class="st53" d="M325.1,498.9c0,0-1.2-0.8-3.1,0.4c-1.9,1.2-0.3,3.6-0.3,3.6s0.9,0.9,1.8,0.5l0.8,1.2c0,0,5,3.3,7,2.9
	c0,0-1.3-4,2.6-5.1l-2.6-2.3c0,0,0.5,0.7-0.6,0.6s-4-0.6-4-0.6l-0.2-0.7L325.1,498.9z"/>
<circle class="st54" cx="333.6" cy="506.1" r="2.7"/>
<path class="st38" d="M541.3,470.4v-4.5v-30.5v-27.6v-23.5c0,0-0.4-3.7-2.5-5L488.1,401l1.7,91.6l5.8-2.5l0.4,17.3l33.8-13.6
	c0,0,5.4-2.1,3.7-19L541.3,470.4z"/>
<path class="st39" d="M488.1,401c0,0-5,0.8-11.1,0c-6.2-0.8-67.7-9.9-67.7-9.9V418v66.4l9.9,1.2v13.6c0,0,0.4,5.8,6.2,6.6h8.3
	c0,0-5.4-3.3-2.9-9.1c2.5-5.8,9.5-5.4,9.5-5.4s7.8-0.8,11.6,6.2v12l14.9,1.2c0,0-2.1-1.7-2.1-4.1s0-15.3,0-15.3l9.5,1.7
	c0,0,8.7,2.5,15.7-0.4L488.1,401z"/>
<path class="st40" d="M409.3,391.1l-3.7-0.4c0,0-4.5-1.2-3.3,18.2v73.4c0,0,2.5,2.5,7,2.1V391.1z"/>
<path class="st41" d="M537.6,377.5l-47.7,20.2c0,0-8.4,2.1-20.3,0c-11.8-2.1-62-9.5-62-9.5l51.1-21.8c0,0,3-0.8,7.2,0
	s72.6,10.3,72.6,10.3L537.6,377.5z"/>
<path class="st42" d="M541.3,403.2c0,0,2.5,2.6,0,3.5c-2.5,0.9-52.2,21.8-52.2,21.8s-4.1,1.2-12.8,0.4c-8.7-0.8-72.2-10.3-72.2-10.3
	s-4.5-1.7-2.5-3.3"/>
<path class="st42" d="M541.3,431.3c0,0,2.5,2.6,0,3.5c-2.5,0.9-52.2,21.8-52.2,21.8s-4.1,1.2-12.8,0.4c-8.7-0.8-72.2-10.3-72.2-10.3
	s-4.5-1.7-2.5-3.3"/>
<path class="st42" d="M541.3,460.6c0,0,2.5,2.6,0,3.5c-2.5,0.9-52.2,21.8-52.2,21.8s-4.1,1.2-12.8,0.4c-8.7-0.8-72.2-10.3-72.2-10.3
	s-4.5-1.7-2.5-3.3"/>
<line class="st42" x1="522.4" y1="385.7" x2="522.6" y2="501.1"/>
<line class="st42" x1="509.2" y1="390.6" x2="509.4" y2="506.1"/>
<line class="st42" x1="496.8" y1="395.6" x2="497" y2="511"/>
<path class="st43" d="M495.9,506.9l-7.8,4.3c0,0-4.1,2.1-9.5,1.3c-5.4-0.9-10.7-2.1-10.7-2.1s-3.7,0.7-3.3-7.6v-12.5l13.4,2.5
	c0,0,12.2,1.4,18-3.8V506.9z"/>
<line class="st42" x1="453.2" y1="397.5" x2="453.2" y2="513.1"/>
<line class="st42" x1="430.1" y1="394.2" x2="430.1" y2="509.8"/>
<path class="st43" d="M419.2,485.1c0,0-18.6-1.3-17.3-3.4c1.2-2.1,0.8,14.4,0.8,14.4s-0.4,2.1,2.9,5.5c0,0,0.8,0.4,3.7,1.3
	s14.8,2.7,14.8,2.7s-5.6-1.4-5-10.3S419.2,485.1,419.2,485.1z"/>
<path class="st44" d="M422.9,508.7l-0.8,4.5L413,517c0,0-13.2-0.8-12.8-2.9c0.4-2.1,0-10.7,0-10.7L422.9,508.7z"/>
<path class="st44" d="M496.1,513.3l0.3,3.3l-2,1.8v7.3l-6.8,3.2c0,0-14.1,1.4-18.5-0.9l-0.8-7.8l-2.4-1.4v-4.1l7.6,0.9
	C473.5,515.7,492.6,515.9,496.1,513.3z"/>
<polyline class="st42" points="407.8,389.9 407.8,506.8 474.7,516.7 475.1,516.8 475.1,517.2 "/>
<path class="st42" d="M405.8,500.7c0,0-12,2.5,2.1,5.8"/>
<path class="st42" d="M536.6,373.6l-1.2-0.2l-71.4-9.7c0,0-9.9-0.8-14.4,2.5l-45,19.4c0,0-5,0.8,0,3.3c5,2.5,70.6,10.7,70.6,10.7
	s14.9,2.1,20.6-2.9l45.8-19.4c0,0,0.8-2.9-2.1-3.3C536.6,373.6,536.6,373.6,536.6,373.6z"/>
<polyline class="st42" points="535.8,376.5 535.8,373.7 535.8,376.9 "/>
<path class="st42" d="M513.3,370.4l-0.1,3.4L513.3,370.4z"/>
<path class="st42" d="M491.1,367.5l-0.1,3.4L491.1,367.5z"/>
<path class="st42" d="M469.2,364.2l-0.1,3.4L469.2,364.2z"/>
<line class="st42" x1="447" y1="367.4" x2="447" y2="372.8"/>
<line class="st42" x1="434.3" y1="373" x2="434.3" y2="378.3"/>
<line class="st42" x1="421.9" y1="377.9" x2="421.9" y2="383.3"/>
<polygon class="st45" points="542.6,491.4 542.6,504.2 538,505.8 538,499.7 536.4,499.7 536.4,494.7 "/>
<polygon class="st46" points="530.6,495.9 524,495.1 520,496.6 520.3,499.2 524,498.8 524,504.2 538,505.8 538,499.7 536.4,499.1 
	536.4,494.7 "/>
<polygon class="st46" points="523.6,501.3 524,504.6 521.9,506.3 521.9,513.7 511.6,517.8 511.6,511.2 510.4,511.2 510.4,507.9 
	510.4,507.1 "/>
<polygon class="st45" points="510.4,507.1 510.4,511.2 503.4,510.8 "/>
<polygon class="st47" points="534.3,495.5 527.6,494.8 533.3,492.2 537.6,490.2 540.6,491.1 539.7,493.5 "/>
<polyline class="st45" points="511.6,511.2 503.4,510.8 503.8,516.6 511.6,517.8 "/>
<path class="st42" d="M475.1,400.8l0,115.6c0.2,0,0.5,0.1,0.7,0.1c11.3,2.1,21.2-3.4,21.2-3.4s38.4-16.9,42.9-19.4s-2.3-3.5-2.3-3.5
	l-1.5-0.2l-2-0.4"/>
<path class="st43" d="M541.2,470.4l-8.9,4.8c0,0,0.7,17.9-2.4,18.6c-3.2,0.7,10.4-2.8,12.3-9.4L541.2,470.4z"/>
<line class="st42" x1="535.2" y1="380.7" x2="535.3" y2="496.1"/>
<path class="st48" d="M451.8,499.6c0,0,1.5-6.8-9.2-8.9c-10.6-2.1-11.9,5.3-11.9,5.3v5.8l2.9,3.3c0,0,4.5-2.1,4.5-3.3
	c0-1.2-6.2-1.7-6.2-1.7l-0.4-2.5l8.3,0.8C439.8,498.4,444.4,489.5,451.8,499.6z"/>
<path class="st49" d="M451.8,500.1c0,0-2.9-5.2-6.8-5.3c-3.9-0.1-5.2,3.6-5.2,3.6s3.3,1.2,3.3,2.1c0,0.8,1.2,0,1.2,0
	s2.9-1.2,4.1,2.1c0,0-0.4,3.3-2.5,2.5l-0.8,1.2l6.6,0.4V500.1z"/>
<path class="st50" d="M443.1,500.5c0,0-2.5-2.1-3.3-2.1c-0.8,0-8.3-0.8-8.3-0.8l0.4,2.5c0,0,7,0.4,6.2,1.7c-0.8,1.2,4.5,0,4.5,0
	L443.1,500.5z"/>
<path class="st51" d="M445.6,503.8c-0.6-0.4-0.7-1.6,0-2.1c0.5-0.3,1.3-0.2,1.7,0.4c0.4,0.6,0.1,1.3-0.4,1.7
	C446.5,504,446,504,445.6,503.8z"/>
<path class="st52" d="M444,501.7"/>
<path class="st53" d="M444.4,500.5c0,0,1.2-0.8,3.1,0.4c1.9,1.2,0.3,3.6,0.3,3.6s-0.9,0.9-1.8,0.5l-0.8,1.2c0,0-5,3.3-7,2.9
	c0,0,1.3-4-2.6-5.1l2.6-2.3c0,0-0.5,0.7,0.6,0.6s4-0.6,4-0.6l0.2-0.7L444.4,500.5z"/>
<circle class="st54" cx="435.9" cy="507.7" r="2.7"/>
<path class="st55" d="M645.9,216.9c0,0,2.9,19.4,64.4,19.7s65.9-18.1,65.9-18.1L762.8,384c0,0-3,30.3-57.8,29.6
	c0,0-33.6,0.6-45.7-26L645.9,216.9z"/>
<ellipse transform="matrix(1.280236e-02 -0.9999 0.9999 1.280236e-02 486.9756 923.617)" class="st56" cx="711.2" cy="215.2" rx="24.2" ry="65"/>
<path class="st57" d="M696.1,212.1c0,0,18.7,8.2,36.6,0.5l0.1-10.9c0,0-11,4.8-20.4,4.2c-9.4-0.6-16.3-4.7-16.3-4.7L696.1,212.1z"/>
<ellipse transform="matrix(1.280236e-02 -0.9999 0.9999 1.280236e-02 505.29 912.1117)" class="st58" cx="714.6" cy="200.2" rx="5.7" ry="18.3"/>
<path class="st59" d="M652.5,287.3c0,0,5.4,20.6,58.3,22.2s59.8-20,59.8-20"/>
<path class="st59" d="M655.9,337.1c0,0,13,21.2,50.5,22.7c37.5,1.5,51.5-12.7,51.5-12.7s6.8-5.9,8.4-8.6"/>
<path class="st60" d="M748.4,233.5l-16.5,177.3c29-7.4,30.9-26.8,30.9-26.8l13.5-165.5C776.2,218.5,773.9,228.4,748.4,233.5z"/>
</svg>
