<svg xmlns="http://www.w3.org/2000/svg" viewBox="0 0 1042.67 660.5"><title>container_view</title><g id="Layer_2" data-name="Layer 2"><g id="Layer_1-2" data-name="Layer 1"><line y1="35" x2="146.99" y2="469.98" style="fill:#1c2955"/><g id="Layer_2-2" data-name="Layer 2"><g id="Layer_1-2-2" data-name="Layer 1-2"><polygon points="283.92 144.1 305.31 143.76 322.39 421.28 305.18 423.13 283.92 144.1" style="fill:#626264"/><polygon points="120.67 74 794.67 0 1032.67 33 293.67 141 276.67 141 120.67 74" style="fill:#1e4729"/><polygon points="999.67 42 1013.67 40 977.67 375 965.29 373.35 999.67 42" style="fill:#97989a"/><polygon points="999.67 42 991.67 43 957.48 370.78 965.67 373 999.67 42" style="fill:#717173"/><polygon points="991.67 43 957.67 371 953.67 368 986.67 44 991.67 43" style="fill:#3c3c3a"/><polygon points="953.67 368 986.67 44 980.67 45 948.54 362.44 953.67 368" style="fill:#6a6a6c"/><polygon points="937.17 361 939.67 361 944.67 362 947.67 362 948.07 362.2 948.38 362.35 948.54 362.44 980.67 45 967.67 46.75 937.17 361" style="fill:#8c8c8c"/><polyline points="937.17 361 934.67 361 929.67 358.88 959.54 47.63 967.67 46.75" style="fill:#7b7b7d"/><polygon points="929.67 358.88 927.67 358 924.67 354 954.67 48.5 959.54 47.63 929.67 358.88" style="fill:#444"/><polygon points="954.67 48.5 949.17 49.5 920.67 352 924.67 354 954.67 48.5" style="fill:#5c5c5e"/><polygon points="920.67 352 908.67 351 936.67 51 949.17 49.5 920.67 352" style="fill:#7e7e80"/><polygon points="908.67 351 901.67 349 929.67 52.5 936.67 51 908.67 351" style="fill:#6f6f71"/><polygon points="901.67 349 897.67 344 924.67 52.5 929.67 52.5 901.67 349" style="fill:#373737"/><polygon points="897.67 344 894.67 342 920.17 54 924.67 52.5 897.67 344" style="fill:#676769"/><polygon points="894.67 342 884.17 341 907.67 55.5 920.17 54 894.67 342" style="fill:#808082"/><polygon points="884.17 341 881.67 341 877.17 338.63 900.29 56.88 907.67 55.5 884.17 341" style="fill:#676769"/><polygon points="877.17 338.63 875.67 338 872.83 335.5 895.5 57.5 900.29 56.88 877.17 338.63" style="fill:#2f2f30"/><polygon points="872.83 335.5 871.67 334 868.33 332.5 890.67 58.67 895.5 57.5 872.83 335.5" style="fill:#68696b"/><polygon points="868.33 332.5 866.67 332 859.17 332 879.83 59.67 890.67 58.67 868.33 332.5" style="fill:#7f7f81"/><polygon points="859.17 332 851.67 329 872.67 60.5 879.83 59.67 859.17 332" style="fill:#6b6b6d"/><polygon points="309.67 413 769.67 287 775 304.33 311 438.33 309.67 413" style="fill:#626264"/><polygon points="851.67 329 848.17 325.5 867.17 61.25 872.67 60.5 851.67 329" style="fill:#333"/><polygon points="848.17 325.5 842.67 322 863 61.67 867.17 61.25 848.17 325.5" style="fill:#6c6c6d"/><polygon points="842.67 322 833.67 322 852 63.33 863 61.67 842.67 322" style="fill:#7c7c7e"/><polygon points="325.67 624 310.67 424 774.67 297 778.67 299 781.67 303 786.67 305 797.67 305 801.67 307 803.67 310 809.67 312 818.67 313 820.67 313 825.67 315 827.67 320 833.67 322 842.67 322 846.67 324 851.67 329 857.67 332 866.67 332 871.67 334 875.67 338 881.67 341 894.67 342 897.67 344 901.67 349 908.67 351 920.67 352 924.67 354 927.67 358 934.67 361 939.67 361 944.67 362 947.67 362 951.67 364 953.67 368 955.67 370 962.67 373 977.67 375 985.67 380 325.67 624" style="fill:#275936"/><polygon points="833.67 322 827.67 320 845.67 64 852 63.33 833.67 322" style="fill:#59595b"/><polygon points="827.67 320 825.67 315 841.17 64.25 845.67 64 827.67 320" style="fill:#363638"/><polygon points="825.67 315 820.67 313 837.17 65.5 841.17 64.25 825.67 315" style="fill:#5c5c5e"/><polygon points="820.67 313 811.42 312.25 825.67 67 837.17 65.5 820.67 313" style="fill:#767678"/><polygon points="811.42 312.25 809.67 312 805.29 310.5 819.92 68.5 825.67 67 811.42 312.25" style="fill:#59595b"/><polygon points="805.29 310.5 803.67 310 801.67 307 815.67 68.63 819.92 68.5 805.29 310.5" style="fill:#333"/><polygon points="801.67 307 797.67 305 811.17 69.5 815.67 68.63 801.67 307" style="fill:#5b5b5d"/><polygon points="797.67 305 788.04 305.13 801.29 71.13 811.17 69.5 797.67 305" style="fill:#717173"/><polygon points="788.04 305.13 781.67 303 794.79 71.75 801.29 71.13 788.04 305.13" style="fill:#5e5e60"/><polygon points="781.67 303 778.67 299 790.92 72 794.79 71.75 781.67 303" style="fill:#222"/><polygon points="325.67 624 326.17 645 985.17 398.5 985.67 380 325.67 624" style="fill:#356841"/><polygon points="977.67 375 985.67 380 989 381.17 1027.04 38.5 1013.67 40 977.67 375" style="fill:#1e4729"/><polygon points="989 381.17 988.42 399.63 985.17 398.5 985.67 380 989 381.17" style="fill:#1e4729"/><polygon points="989 383.83 1002.17 379.83 1000.83 395.83 988.42 399.63 989 383.83" style="fill:#1e4729"/><ellipse cx="995.25" cy="389.59" rx="2.24" ry="2.42" transform="translate(-67.01 507.47) rotate(-27.71)"/><polygon points="988 383.83 1001.17 379.83 1038.83 49.17 1025 50 988 383.83" style="fill:#356841"/><polygon points="1026 50 1041.17 48.67 1042.67 30.17 1026 28.17 1014 30.5 1032.67 33 1026.67 33.67 1026 50" style="fill:#1e4729"/><ellipse cx="1036.66" cy="40.64" rx="4.74" ry="2.39" transform="translate(859.45 1062.85) rotate(-82.41)"/><polygon points="1026.67 33.67 293.67 141 290.92 141 291.42 144 291.67 145.75 1027.04 38.5 1026.67 33.67" style="fill:#4b7d58"/><polygon points="291.92 141 292 167 263.33 171.67 248 164.33 248 137 264 133.67 291.92 141" style="fill:#1e4729"/><ellipse cx="275" cy="154.99" rx="4.71" ry="9.25" transform="translate(-8.66 16.48) rotate(-3.38)"/><polygon points="778.67 299 774.67 297 788 73.67 791 73.17 778.67 299" style="fill:#555557"/><polygon points="769.42 298.5 774.67 297 788 73.67 782.42 74.25 769.42 298.5" style="fill:#6b6b6d"/><polygon points="769.42 298.5 764.42 300 777.92 75 782.42 74.25 769.42 298.5" style="fill:#828284"/><polygon points="746.92 305 751.92 303.75 760.67 78 755.17 78.75 746.92 305" style="fill:#828284"/><polygon points="723.92 310.33 728.92 309.07 737.67 81 732.17 81.76 723.92 310.33" style="fill:#828284"/><polygon points="700.58 317 705.58 315.72 714.33 84.67 708.83 85.43 700.58 317" style="fill:#828284"/><polygon points="674.92 324 679.92 322.7 688.67 88 683.17 88.78 674.92 324" style="fill:#828284"/><polygon points="649.25 331.67 654.25 330.35 663 92 657.5 92.79 649.25 331.67" style="fill:#828284"/><polygon points="623.07 338.78 628.05 337.36 632.9 95.36 627.41 96.25 623.07 338.78" style="fill:#828284"/><polygon points="597.76 345.12 602.74 343.69 607.56 100.36 602.08 101.26 597.76 345.12" style="fill:#828284"/><polygon points="569.48 353.78 574.45 352.31 577.91 104.34 572.43 105.28 569.48 353.78" style="fill:#828284"/><polygon points="541.98 360.73 546.93 359.16 546.5 108.79 541.03 109.82 541.98 360.73" style="fill:#828284"/><polygon points="513.53 367.75 518.45 366.11 515.07 113.27 509.62 114.38 513.53 367.75" style="fill:#828284"/><polygon points="484.08 375.88 489 374.21 484.72 117.27 479.27 118.4 484.08 375.88" style="fill:#828284"/><polygon points="453.21 385.87 458.12 384.14 451.88 122.27 446.44 123.45 453.21 385.87" style="fill:#828284"/><polygon points="422.34 393.33 427.23 391.53 417.88 127.79 412.45 129.04 422.34 393.33" style="fill:#828284"/><polygon points="389.65 402.5 394.52 400.63 382.93 132.31 377.51 133.61 389.65 402.5" style="fill:#828284"/><polygon points="356.67 411.03 361.52 409.09 346.27 136.86 340.87 138.24 356.67 411.03" style="fill:#828284"/><polygon points="321.61 421.63 326.45 419.66 310.69 143.36 305.3 144.76 321.61 421.63" style="fill:#828284"/><polygon points="760.67 78 777.92 75 764.42 300 751.92 303.75 760.67 78" style="fill:#626264"/><polygon points="737.67 81 755.17 78.75 746.92 305 728.92 309.07 737.67 81" style="fill:#626264"/><polygon points="714.33 84.67 732.17 81.76 723.92 310.33 705.58 315.72 714.33 84.67" style="fill:#626264"/><polygon points="688.67 88 708.83 85.43 700.58 317 679.92 322.7 688.67 88" style="fill:#626264"/><polygon points="663 92 683.17 88.78 674.92 324 654.25 330.35 663 92" style="fill:#626264"/><polygon points="632.9 95.36 657.5 92.79 649.25 331.67 628.05 337.36 632.9 95.36" style="fill:#626264"/><polygon points="607.56 100.36 627.41 96.25 623.07 338.78 602.74 343.69 607.56 100.36" style="fill:#626264"/><polygon points="577.91 104.34 602.08 101.26 597.76 345.12 574.45 352.31 577.91 104.34" style="fill:#626264"/><polygon points="572.43 105.28 546.5 108.79 546.93 359.16 569.48 353.78 572.43 105.28" style="fill:#626264"/><polygon points="515.07 113.27 541.03 109.82 541.98 360.73 518.45 366.11 515.07 113.27" style="fill:#626264"/><polygon points="484.72 117.27 509.62 114.38 513.53 367.75 489 374.21 484.72 117.27" style="fill:#626264"/><polygon points="451.88 122.27 479.27 118.4 484.08 375.88 458.12 384.14 451.88 122.27" style="fill:#626264"/><polygon points="417.88 127.79 446.44 123.45 453.21 385.87 427.23 391.53 417.88 127.79" style="fill:#626264"/><polygon points="382.93 132.31 412.45 129.04 422.34 393.33 394.52 400.63 382.93 132.31" style="fill:#626264"/><polygon points="346.27 136.86 377.51 133.61 389.65 402.5 361.52 409.09 346.27 136.86" style="fill:#626264"/><polygon points="340.87 138.24 356.67 411.03 326.45 419.66 310.69 143.36 340.87 138.24" style="fill:#626264"/><polygon points="325.67 628.33 326.67 651 298.17 660.5 286.67 648 285.17 626 294.67 623.5 296.33 636.33 303.67 639 325.67 628.33" style="fill:#1e4729"/><ellipse cx="313.18" cy="644.29" rx="5.5" ry="5.6" transform="translate(-72.4 40.53) rotate(-6.64)"/><polygon points="295 618.67 294.67 608.5 263.33 577.17 164.17 475.83 165.5 491.33 167.83 493.33 168 486.33 178.83 495.17 179 504 181.5 506.83 285.83 618.33 286.83 611.5 295 618.67" style="fill:#1e4729"/><polygon points="164.17 475.83 155.67 468 154.54 458.88 155.79 459.13 156.54 466.25 179.42 488.88 220.92 532.13 182.42 131.75 185.92 131.75 224.54 534.5 291.92 605.75 291.17 608 164.17 475.83" style="fill:#161c3a"/><polygon points="291.92 605.75 294.67 608.5 294.83 610.5 291.17 608 291.92 605.75" style="fill:#161c3a"/><polygon points="155.79 459.13 159.5 459.5 159.67 451.33 160.83 449.33 292.17 576.5 294.67 608.5 156.54 466.25 155.79 459.13" style="fill:#356841"/><polygon points="160.83 449.33 161.42 445.5 166.92 434.75 289.29 542.5 292.17 576.5 160.83 449.33" style="fill:#4b7d58"/><polygon points="166.92 434.75 166.54 423.25 172.42 427.63 173.42 433.38 175.04 434.5 175.67 442.88 166.92 434.75" style="fill:#26366c"/><polygon points="157.67 417.88 163.67 422.5 166.54 423.25 166.92 434.75 161.42 445.5 160.83 449.33 159.67 451.33 157.67 417.88" style="fill:#1e4729"/><polygon points="291.67 144.75 291.67 150 1025.67 42.67 1027.04 37.5 291.67 144.75" style="fill:#4b7d58"/><polygon points="141.83 268.83 148 258 146.5 245.33 138.17 236.67 140.33 268.67 141.83 268.83" style="fill:#1e4729"/><polygon points="144.33 283.5 151.83 291.67 152.67 303 146 314.83 142.67 281.83 144.33 283.5" style="fill:#1e4729"/><polygon points="148.83 328.83 156.83 335.5 157.67 348.33 152 359.33 148.83 328.83" style="fill:#1e4729"/><polygon points="248.42 155.25 226.04 145.13 195.29 130.25 120.04 93.13 113.29 93.38 113.79 105.88 152.04 444.75 155.67 468 156.54 466.25 115.42 106.25 115.29 99 248 164.33 248.42 155.25" style="fill:#252429;opacity:0.8500000238418579;isolation:isolate"/><polygon points="136.67 148.5 116.67 134 128.67 202 155.67 454.75 164.67 453.75 136.67 148.5" style="fill:#1e4729"/><polygon points="143.04 470.88 155.67 468 113.79 105.88 113.29 93.38 101.92 94.25 99.04 92.5 99.42 106.38 101.42 106.25 143.04 470.88" style="fill:#1e4729"/><path d="M114.92,228.5" style="fill:#2d3d79"/><polygon points="115.29 99 263.33 171.67 265.67 209.5 116.67 134 115.29 99" style="fill:#285b36"/><path d="M261.87,486.89l-.29-5.5-2-37-1.79-33.51-1.52-28.51s.38-4.53,3.39-6.2l77.54,22.44,3.45,111.17-8.83-2.54.5,21-51.63-13.79s-8.18-2.07-6.8-22.71Z" style="fill:#b3b7ba"/><path d="M337.23,398.6a77.27,77.27,0,0,0,16.71-.89c9.23-1.5,100.86-17.42,100.86-17.42l1.74,32.51,4.3,80.53-14.77,2.29.88,16.51s-.24,7-8.86,8.5l-12.38.66s7.83-4.43,3.74-11.23-14.58-5.74-14.58-5.74-11.81-.37-16.93,8.43l.77,14.5-22.2,2.69s3-2.17,2.83-5.17l-1-18.51L364.23,509s-12.84,3.7-23.55.76Z" style="fill:#fafbfe"/><path d="M454.8,380.28l5.54-.8s6.73-1.86,6.13,21.74l4.75,89s-3.55,3.2-10.39,3.06Z" style="fill:#c1c1c5"/><path d="M261.46,374l72.82,20.62s12.79,1.82,30.38-1.62,92.42-16.44,92.42-16.44l-78-22.34a31.48,31.48,0,0,0-10.76.57c-6.28,1.34-108.19,18.28-108.19,18.28Z" style="fill:#898a8b"/><path d="M257.53,405.49s-3.55,3.32.23,4.25,79.7,22.2,79.7,22.2,6.27,1.17,19.21-.52,107.64-18.29,107.64-18.29,6.7-2.36,3.5-4.2" style="fill:none;stroke:#868b91;stroke-miterlimit:10;stroke-width:3px"/><path d="M259.34,439.5s-3.55,3.32.23,4.25,79.7,22.2,79.7,22.2,6.27,1.17,19.21-.52,107.64-18.29,107.64-18.29,6.7-2.36,3.5-4.2" style="fill:none;stroke:#868b91;stroke-miterlimit:10;stroke-width:3px"/><path d="M261.24,475s-3.55,3.32.23,4.25,79.7,22.2,79.7,22.2,6.27,1.17,19.21-.52S468,482.65,468,482.65s6.7-2.36,3.5-4.2" style="fill:none;stroke:#868b91;stroke-miterlimit:10;stroke-width:3px"/><line x1="284.78" y1="382.75" x2="292.02" y2="522.65" style="fill:none;stroke:#868b91;stroke-miterlimit:10;stroke-width:3px"/><line x1="304.9" y1="387.7" x2="312.15" y2="527.6" style="fill:none;stroke:#868b91;stroke-miterlimit:10;stroke-width:3px"/><line x1="323.79" y1="392.71" x2="331.04" y2="532.61" style="fill:none;stroke:#868b91;stroke-miterlimit:10;stroke-width:3px"/><path d="M332.32,527.53l12,4.55a30.32,30.32,0,0,0,14.32.79c8-1.47,16-3.45,16-3.45s5.62.57,4.46-9.42l-.81-15.2-19.87,4.06s-18.25,2.65-27.25-3.11Z" style="fill:#4f4f4f"/><line x1="389.33" y1="391.49" x2="396.78" y2="531.6" style="fill:none;stroke:#868b91;stroke-miterlimit:10;stroke-width:3px"/><line x1="423.77" y1="385.64" x2="431.22" y2="525.75" style="fill:none;stroke:#868b91;stroke-miterlimit:10;stroke-width:3px"/><path d="M446,495s27.77-3,25.77-5.5-.3,17.54-.3,17.54.76,2.54-4,6.91a45.09,45.09,0,0,1-5.49,1.84c-4.28,1.26-22,4.4-22,4.4s8.24-2.12,6.84-12.87S446,495,446,495Z" style="fill:#4f4f4f"/><path d="M442,523.92l1.53,5.44,13.86,3.77s19.75-2.06,19-4.53-.69-13-.69-13Z" style="fill:#3f5494"/><path d="M332.54,535.28l-.21,4.05,3.13,2.05.47,8.85,10.45,3.32s21.18.53,27.66-2.59l.7-9.46,3.53-1.85-.27-5-11.39,1.72S338,538.16,332.54,535.28Z" style="fill:#3f5494"/><polyline points="456.92 378.67 464.45 520.33 364.85 537.74 364.21 537.85 364.24 538.36" style="fill:none;stroke:#868b91;stroke-miterlimit:10;stroke-width:3px"/><path d="M467.15,512.8s18.11,2-2.72,7.17" style="fill:none;stroke:#868b91;stroke-miterlimit:10;stroke-width:3px"/><path d="M262.73,369.22l1.85-.3L371,351.4s14.8-1.79,21.82,1.84l68.72,19.9s7.48.6.21,4-105.14,18.66-105.14,18.66S334.48,399.5,325.5,394l-70-19.84s-1.42-3.44,2.88-4.17Z" style="fill:none;stroke:#868b91;stroke-miterlimit:10;stroke-width:3px"/><polyline points="264.11 372.67 263.93 369.29 264.18 373.16" style="fill:none;stroke:#868b91;stroke-miterlimit:10;stroke-width:3px"/><path d="M297.4,363.52l.31,4.09Z" style="fill:none;stroke:#868b91;stroke-miterlimit:10;stroke-width:3px"/><path d="M330.63,358.23l.31,4.09Z" style="fill:none;stroke:#868b91;stroke-miterlimit:10;stroke-width:3px"/><path d="M363.22,352.48l.31,4.09Z" style="fill:none;stroke:#868b91;stroke-miterlimit:10;stroke-width:3px"/><line x1="396.63" y1="354.55" x2="396.98" y2="361.05" style="fill:none;stroke:#868b91;stroke-miterlimit:10;stroke-width:3px"/><line x1="416.18" y1="360.28" x2="416.53" y2="366.78" style="fill:none;stroke:#868b91;stroke-miterlimit:10;stroke-width:3px"/><line x1="435.07" y1="365.29" x2="435.41" y2="371.79" style="fill:none;stroke:#868b91;stroke-miterlimit:10;stroke-width:3px"/><polygon points="261.38 512.5 262.21 528 269.12 529.64 268.72 522.14 271.2 522.01 270.88 516.01 261.38 512.5" style="fill:#3a4d87"/><polygon points="279.62 517.04 289.47 515.51 295.64 516.98 295.31 520.22 289.71 520.02 290.06 526.52 269.12 529.64 268.72 522.14 271.16 521.32 270.88 516.01 279.62 517.04" style="fill:#364984"/><polygon points="290.49 522.98 290.08 527.02 293.29 528.85 293.77 537.86 309.51 542.03 309.08 534.03 310.94 533.93 310.72 529.93 310.67 528.93 290.49 522.98" style="fill:#364984"/><polygon points="310.67 528.93 310.94 533.93 321.43 532.87 310.67 528.93" style="fill:#3a4d87"/><polygon points="274.02 516.84 284.09 515.47 275.4 512.75 268.73 510.6 264.26 511.96 265.85 514.77 274.02 516.84" style="fill:#1f263f"/><polyline points="309.08 534.03 321.43 532.87 321.19 539.9 309.51 542.03" style="fill:#3a4d87"/><path d="M356.74,397.24l7.45,140.11-1,.22c-16.77,3.46-32-2.47-32-2.47S272.52,517.67,265.55,515s3.18-4.43,3.18-4.43l2.21-.37,3-.66" style="fill:none;stroke:#868b91;stroke-miterlimit:10;stroke-width:3px"/><path d="M262,486.88l13.7,5.13s.05,21.77,4.88,22.36-15.83-2.58-19.07-10.4Z" style="fill:#4f4f4f"/><line x1="265.27" y1="377.78" x2="272.52" y2="517.67" style="fill:none;stroke:#868b91;stroke-miterlimit:10;stroke-width:3px"/><path d="M398.07,515.11s-2.62-8.09,13.19-11.53S429.4,509,429.4,509l.38,7-4.12,4.2s-6.94-2.14-7-3.64,9.18-2.5,9.18-2.5l.46-3-12.32,1.66S408.56,502.38,398.07,515.11Z" style="fill:#abadad;opacity:0.7000000000000001"/><path d="M398.1,515.73s4-6.52,9.86-6.94a8,8,0,0,1,8,4s-4.87,1.76-4.82,2.77-1.86.1-1.86.1-4.41-1.27-6.06,2.83c0,0,.83,4,3.87,2.8l1.32,1.43-9.88,1Z" style="fill:#faf9fc"/><path d="M411.13,515.54s3.58-2.7,4.82-2.77,12.32-1.66,12.32-1.66l-.46,3s-10.49,1.06-9.18,2.5-6.81.36-6.81.36Z" style="fill:#014988"/><path d="M407.63,519.74a1.44,1.44,0,0,0-.13-2.5,2.11,2.11,0,0,0-2.45.63,1.34,1.34,0,0,0,.73,2A2.1,2.1,0,0,0,407.63,519.74Z" style="fill:#cbced1"/><path d="M410,517.1" style="fill:none;stroke:#95918e;stroke-miterlimit:10;stroke-width:2px"/><path d="M409.27,515.64s-1.79-.87-4.55.76-.29,4.4-.29,4.4a3.05,3.05,0,0,0,2.66.47l1.32,1.43s7.64,3.6,10.71,2.94c0,0-2.24-4.75,3.63-6.39l-4.11-2.61s.82.79-.82.71-6-.35-6-.35l-.41-.86Z" style="fill:#95918e;opacity:0.7000000000000001"/><ellipse cx="422.42" cy="523.71" rx="4.03" ry="3.26" transform="translate(-27.33 23.27) rotate(-3.06)" style="fill:#fc5a53"/><polygon points="248.42 157.25 120.04 93.09 120.67 73.33 264 134.96 248 138.4 248.42 157.25" style="fill:#4b7d58"/><polygon points="120.04 93.09 120.67 73.33 128 73.67 127 69.67 120.67 66 92 68.67 95.33 90.67 101.92 94.25 120.04 93.09" style="fill:#1e4729"/><polygon points="262.33 171.67 291 167 325.67 624 325.67 628.33 303.67 639 296.33 636.33 262.33 171.67" style="fill:#4b7d58"/><path d="M100.75,108h13.38s4.25.75,4.25,3.63.25,8.13.25,8.13-.12,2-5.12,1.75-12.25-.12-12.25-.12Z" style="fill:#1e4729"/><polygon points="265.67 209.5 266.67 218 136.67 148.5 116.67 134 265.67 209.5" style="fill:#1e4729"/><polygon points="125.67 141 136.67 148.5 136.67 160.5 130.17 171.5 125.67 141" style="fill:#1e4729"/><polygon points="136.67 148.5 266.67 218 266.67 234 136.67 160.5 136.67 148.5" style="fill:#356841"/><polygon points="136.67 160.5 266.67 234 268.67 253 130.17 171.5 136.67 160.5" style="fill:#4b7d58"/><polygon points="130.17 171.5 268.67 253 274.17 330 138.17 236.67 130.17 171.5" style="fill:#285b36"/><polygon points="138.17 236.67 274.17 330 274.67 337 133.29 241.13 138.17 236.67" style="fill:#1e4729"/><polygon points="274.67 337 275.67 348.5 148 258 146.67 250 274.67 337" style="fill:#356841"/><polygon points="148 258 275.67 348.5 277.17 370.5 140.33 268.67 148 258" style="fill:#4b7d58"/><polygon points="140.33 268.67 277.17 370.5 278.17 383.5 142.67 281.83 140.33 268.67" style="fill:#285b36"/><polygon points="142.67 281.83 278.17 383.5 278.42 387.5 142.67 285 142.67 281.83" style="fill:#1e4729"/><polygon points="116.67 134 125.67 141 159.67 451.33 159.5 459.5 155.79 459.13 116.67 134" style="fill:#356841"/><path d="M115.42,229.38h13.37s4.21.75,4.21,3.62.25,8.13.25,8.13-.12,2-5.12,1.75-12.25-.12-12.25-.12Z" style="fill:#1e4729"/><path d="M128.08,340.71h13.38s4.25.75,4.25,3.63.25,8.13.25,8.13-.12,2-5.12,1.75-12.25-.12-12.25-.12Z" style="fill:#1e4729"/><path d="M140.08,444.71h13.38s4.25.75,4.25,3.63.25,8.13.25,8.13-.12,2-5.12,1.75-12.25-.12-12.25-.12Z" style="fill:#1e4729"/><polygon points="151.83 291.67 278.42 387.5 279.33 402 152.67 303 151.83 291.67" style="fill:#285b36"/><polygon points="157.32 342.5 156.83 335.5 280.69 435.22 281.67 444 157.32 342.5" style="fill:#285b36"/><polygon points="152.67 303 279.33 402 280.67 423 146 314.83 152.67 303" style="fill:#4b7d58"/><polygon points="146 314.83 280.67 423 281.33 437.33 148.83 328.83 146 314.83" style="fill:#285b36"/><polygon points="281.33 437.33 148.83 328.83 149.67 332.67 282 441.67 281.33 437.33" style="fill:#1e4729"/><polygon points="157 339.67 282 441.67 283 454.33 157.67 348.33 157 339.67" style="fill:#285b36"/><polygon points="157.67 348.33 283 454.33 284.67 476.67 150 359 157.67 348.33" style="fill:#4b7d58"/><polygon points="150 359 284.67 476.67 289.29 542.5 166.92 434.75 157.67 417.88 150 359" style="fill:#285b36"/><polygon points="165.5 491.33 150.17 496.5 142.17 491 139.17 471.5 155.67 468 164.17 475.83 165.5 491.33" style="fill:#1e4729"/></g></g><polygon points="247.11 399.1 253.91 404.16 255.22 413.07 252.1 412.51 252.8 410.39 252.08 405.44 247.26 403.62 246.15 400.58 247.11 399.1" style="fill:#787d92"/><path d="M217.17,143.67s0-5,4-3" style="fill:#96959b"/><path d="M166.17,118.67" style="fill:#757577"/><path d="M217.21,134.75l0-3.08a2,2,0,0,1,2-2h4l.17,2.71s-1.17,1.29-2.17,2.29S217.21,134.75,217.21,134.75Z" style="fill:#7f838c"/><path d="M217.17,143.67s0-3,2-3h2s0,1,2,1h1v-4h-2l-1,1h-2v-1l-2-1Z" style="fill:#99989e"/><path d="M217.17,136.67h-1v-2h5s1-3,3-2v1h4v3l-4,1h-2l-1,1h-2v-1Z" style="fill:#605c59"/><path d="M221.17,140.67s0,1,3,1h2v2h-9Z" style="fill:#96959b"/><path d="M226.67,158.92s6.5-1.25,5.32,3.75,1.18,22,1.18,22a10.92,10.92,0,0,1-3.84.25C227.26,184.67,226.67,158.92,226.67,158.92Z" style="fill:#7a7a7c"/><polygon points="260.5 560.33 263.17 559.67 264.17 576.67 262.5 576.83 260.5 560.33" style="fill:#737479"/><polygon points="247.17 406.15 249.98 404.83 252.04 405.77 253.17 411.41 252.04 413.67 248.48 412.92 247.17 406.15" style="fill:#5b5a62"/><polygon points="221.9 161.29 218.51 160.41 219.63 184.68 221.83 184.93 221.9 161.29" style="fill:#7a7a7c"/><path d="M217.17,143.67s2,2,2,3,4,52,4,52l2,28,4,42,3,37,9,101,8,91,8,88h6l-37-442Z" style="fill:#c4c4c4"/><circle cx="230.17" cy="163.67" r="1" style="fill:#9f9fa0"/><polygon points="258 587.58 258.17 589.67 263.17 589.67 263.17 587.42 258 587.58" style="fill:#818592"/><circle cx="231.17" cy="181.67" r="1" style="fill:#9f9fa0"/><polygon points="263.17 559.67 261.67 559 262.17 556.67 266.17 559.67 267.17 579.67 264.17 576.67 263.17 559.67" style="fill:#95989f"/><path d="M257.17,585.67h7a1.39,1.39,0,0,1,0,2h-7A1.39,1.39,0,0,1,257.17,585.67Z" style="fill:#363e4c"/><polygon points="218.11 376.78 224.91 381.65 226.22 390.19 223.1 389.66 223.8 387.62 223.08 382.88 218.26 381.13 217.15 378.21 218.11 376.78" style="fill:#787d92"/><path d="M188.17,131.66s0-4.8,4-2.88" style="fill:#96959b"/><path d="M137.17,107.67" style="fill:#757577"/><path d="M188.21,123.1l0-3a1.91,1.91,0,0,1,2-1.92h4l.17,2.6s-1.17,1.24-2.17,2.2S188.21,123.1,188.21,123.1Z" style="fill:#7f838c"/><path d="M188.17,131.66s0-2.88,2-2.88h2s0,1,2,1h1V125.9h-2l-1,1h-2v-1l-2-1Z" style="fill:#99989e"/><path d="M188.17,124.94h-1V123h5s1-2.88,3-1.92v1h4v2.88l-4,1h-2l-1,1h-2v-1Z" style="fill:#605c59"/><path d="M192.17,128.78s0,1,3,1h2v1.92h-9Z" style="fill:#96959b"/><path d="M197.67,146.29s6.5-1.2,5.32,3.6S204.17,171,204.17,171a11.36,11.36,0,0,1-3.84.24C198.26,171,197.67,146.29,197.67,146.29Z" style="fill:#7a7a7c"/><polygon points="231.5 531.52 234.17 530.88 235.17 547.19 233.5 547.35 231.5 531.52" style="fill:#737479"/><polygon points="218.17 383.55 220.98 382.29 223.04 383.19 224.17 388.6 223.04 390.77 219.48 390.05 218.17 383.55" style="fill:#5b5a62"/><polygon points="192.9 148.57 189.51 147.73 190.63 171.02 192.83 171.25 192.9 148.57" style="fill:#7a7a7c"/><path d="M188.17,131.66s2,1.92,2,2.88,4,49.9,4,49.9l2,26.87,4,40.31,3,35.51,9,96.93,8,87.33,8,84.45h6l-37-424.17Z" style="fill:#c4c4c4"/><ellipse cx="201.17" cy="150.85" rx="1" ry="0.96" style="fill:#9f9fa0"/><polygon points="229 557.67 229.17 559.67 234.17 559.67 234.17 557.51 229 557.67" style="fill:#818592"/><ellipse cx="202.17" cy="168.13" rx="1" ry="0.96" style="fill:#9f9fa0"/><polygon points="234.17 530.88 232.67 530.24 233.17 528 237.17 530.88 238.17 550.07 235.17 547.19 234.17 530.88" style="fill:#95989f"/><path d="M228.17,555.83h7a1.29,1.29,0,0,1,0,1.92h-7A1.29,1.29,0,0,1,228.17,555.83Z" style="fill:#363e4c"/><polygon points="195.11 357.83 201.91 362.59 203.22 370.94 200.1 370.42 200.8 368.43 200.08 363.79 195.26 362.08 194.15 359.23 195.11 357.83" style="fill:#787d92"/><path d="M165.17,118.13s0-4.69,4-2.82" style="fill:#96959b"/><path d="M114.17,94.67" style="fill:#757577"/><path d="M165.21,109.76l0-2.89a1.88,1.88,0,0,1,2-1.88h4l.17,2.54s-1.17,1.21-2.17,2.15S165.21,109.76,165.21,109.76Z" style="fill:#7f838c"/><path d="M165.17,118.13s0-2.82,2-2.82h2s0,.94,2,.94h1V112.5h-2l-1,.94h-2v-.94l-2-.94Z" style="fill:#99989e"/><path d="M165.17,111.56h-1v-1.88h5s1-2.82,3-1.88v.94h4v2.82l-4,.94h-2l-1,.94h-2v-.94Z" style="fill:#605c59"/><path d="M169.17,115.31s0,.94,3,.94h2v1.88h-9Z" style="fill:#96959b"/><path d="M174.67,132.44s6.5-1.17,5.32,3.52,1.18,20.65,1.18,20.65a11.61,11.61,0,0,1-3.84.23C175.26,156.6,174.67,132.44,174.67,132.44Z" style="fill:#7a7a7c"/><polygon points="208.5 509.14 211.17 508.51 212.17 524.47 210.5 524.62 208.5 509.14" style="fill:#737479"/><polygon points="195.17 364.45 197.98 363.21 200.04 364.1 201.17 369.39 200.04 371.5 196.48 370.8 195.17 364.45" style="fill:#5b5a62"/><polygon points="169.9 134.66 166.51 133.84 167.63 156.62 169.83 156.84 169.9 134.66" style="fill:#7a7a7c"/><path d="M165.17,118.13s2,1.88,2,2.82,4,48.8,4,48.8l2,26.28,4,39.41,3,34.72,9,94.78,8,85.4,8,82.58h6l-37-414.79Z" style="fill:#c4c4c4"/><ellipse cx="178.17" cy="136.9" rx="1" ry="0.94" style="fill:#9f9fa0"/><polygon points="206 534.71 206.17 536.67 211.17 536.67 211.17 534.56 206 534.71" style="fill:#818592"/><ellipse cx="179.17" cy="153.79" rx="1" ry="0.94" style="fill:#9f9fa0"/><polygon points="211.17 508.51 209.67 507.89 210.17 505.7 214.17 508.51 215.17 527.28 212.17 524.47 211.17 508.51" style="fill:#95989f"/><path d="M205.17,532.91h7a1.25,1.25,0,0,1,0,1.88h-7A1.25,1.25,0,0,1,205.17,532.91Z" style="fill:#363e4c"/><polygon points="170.18 338.29 176.99 342.8 178.31 350.76 175.19 350.27 175.89 348.37 175.16 343.95 170.34 342.33 169.22 339.62 170.18 338.29" style="fill:#787d92"/><path d="M139.84,110s0-4.47,4-2.69" style="fill:#96959b"/><path d="M88.8,87.77" style="fill:#757577"/><path d="M139.86,102.05l0-2.76a1.82,1.82,0,0,1,2-1.79h4l.17,2.42s-1.16,1.16-2.16,2.05S139.86,102.05,139.86,102.05Z" style="fill:#7f838c"/><path d="M139.84,110s0-2.68,2-2.69h2s0,.89,2,.89h1v-3.58h-2l-1,.9h-2v-.89l-2-.89Z" style="fill:#99989e"/><path d="M139.83,103.77h-1V102h5s1-2.68,3-1.79v.89h4v2.68l-4,.9h-2l-1,.9h-2v-.89Z" style="fill:#605c59"/><path d="M143.83,107.34s0,.89,3,.89h2V110l-9,0Z" style="fill:#96959b"/><path d="M149.36,123.64s6.5-1.13,5.32,3.34,1.22,19.66,1.22,19.66a12.17,12.17,0,0,1-3.84.23C150,146.65,149.36,123.64,149.36,123.64Z" style="fill:#7a7a7c"/><polygon points="172.67 419.92 165.17 418.67 159.17 412.67 159.17 416.67 166.17 423.67 169.17 423.67 173.17 427.67 172.67 419.92" style="fill:#9c9da0"/><polygon points="183.82 482.38 186.49 481.78 187.51 496.98 185.85 497.13 183.82 482.38" style="fill:#737479"/><polygon points="170.25 344.59 173.06 343.41 175.12 344.25 176.26 349.28 175.13 351.3 171.57 350.63 170.25 344.59" style="fill:#5b5a62"/><polygon points="144.6 125.77 141.2 124.99 142.37 146.68 144.56 146.89 144.6 125.77" style="fill:#7a7a7c"/><path d="M139.84,110s2,1.78,2,2.68,4.08,46.47,4.08,46.47l2,25L152,221.73l3.06,33.07,9.16,90.26,8.14,81.33L180.53,505h6L148.84,110Z" style="fill:#c4c4c4"/><ellipse cx="152.87" cy="127.88" rx="1" ry="0.89" transform="translate(-0.22 0.27) rotate(-0.1)" style="fill:#9f9fa0"/><polygon points="181.37 506.74 181.53 508.61 186.53 508.6 186.53 506.59 181.37 506.74" style="fill:#818592"/><ellipse cx="153.9" cy="143.97" rx="1" ry="0.89" transform="translate(-0.25 0.27) rotate(-0.1)" style="fill:#9f9fa0"/><polygon points="186.49 481.78 184.99 481.19 185.48 479.1 189.49 481.78 190.52 499.65 187.51 496.98 186.49 481.78" style="fill:#95989f"/><path d="M180.53,505h7a1.15,1.15,0,0,1,0,1.79h-7A1.15,1.15,0,0,1,180.53,505Z" style="fill:#363e4c"/><polygon points="196.67 442.92 189.17 441.67 183.17 435.67 183.17 439.67 190.17 446.67 193.17 446.67 197.17 450.67 196.67 442.92" style="fill:#9c9da0"/><polygon points="227.67 482.42 235.17 483.67 241.17 489.67 241.17 485.67 234.17 478.67 231.17 478.67 227.17 474.67 227.67 482.42" style="fill:#9c9da0"/><polygon points="256.67 509.42 264.17 510.67 270.17 516.67 270.17 512.67 263.17 505.67 260.17 505.67 256.17 501.67 256.67 509.42" style="fill:#9c9da0"/><path d="M658.5,429.07V327.71s-.53-4.37-3.18-5.82l-65.15,25.71,2.12,107.67,7.42-2.91.53,20.37,43.43-16s6.89-2.43,4.77-22.31Z" style="fill:#b3b7ba"/><path d="M590.17,347.59a58.34,58.34,0,0,1-14.3,0C567.92,346.62,489,336,489,336V445.57L501.71,447v16a8.8,8.8,0,0,0,7.95,7.76h10.59s-6.89-3.88-3.71-10.67,12.18-6.31,12.18-6.31,10.06-1,14.83,7.28v14.07l19.07,1.46s-2.65-1.94-2.65-4.85V453.81l12.18,1.94s11.12,2.91,20.13-.49Z" style="fill:#fafbfe"/><path d="M489,336l-4.77-.49S478.41,334,480,356.81v86.33s3.18,2.91,9,2.43Z" style="fill:#c1c1c5"/><path d="M653.71,319.91l-61.2,23.7s-10.83,2.42-26,0-79.62-11.12-79.62-11.12l65.54-25.63a23.8,23.8,0,0,1,9.21,0c5.42,1,93.16,12.09,93.16,12.09Z" style="fill:#898a8b"/><path d="M658.5,350.14s3.18,3,0,4.12-67,25.58-67,25.58-5.3,1.46-16.42.49-92.69-12.13-92.69-12.13-5.83-1.94-3.18-3.88" style="fill:none;stroke:#868b91;stroke-miterlimit:10;stroke-width:3px"/><path d="M658.5,383.12s3.18,3,0,4.12-67,25.58-67,25.58-5.3,1.46-16.42.49-92.69-12.13-92.69-12.13-5.83-1.94-3.18-3.88" style="fill:none;stroke:#868b91;stroke-miterlimit:10;stroke-width:3px"/><path d="M658.5,417.56s3.18,3,0,4.12-67,25.58-67,25.58-5.3,1.46-16.42.49-92.69-12.13-92.69-12.13-5.83-1.94-3.18-3.88" style="fill:none;stroke:#868b91;stroke-miterlimit:10;stroke-width:3px"/><line x1="634.2" y1="329.56" x2="634.4" y2="465.21" style="fill:none;stroke:#868b91;stroke-miterlimit:10;stroke-width:3px"/><line x1="617.26" y1="335.38" x2="617.45" y2="471.03" style="fill:none;stroke:#868b91;stroke-miterlimit:10;stroke-width:3px"/><line x1="601.36" y1="341.2" x2="601.56" y2="476.85" style="fill:none;stroke:#868b91;stroke-miterlimit:10;stroke-width:3px"/><path d="M600.23,472l-10.06,5A23.16,23.16,0,0,1,578,478.54c-6.89-1-13.77-2.51-13.77-2.51s-4.77.84-4.24-8.88V452.41l17.14,2.9s15.7,1.62,23.11-4.41Z" style="fill:#4f4f4f"/><line x1="545.38" y1="343.41" x2="545.41" y2="479.27" style="fill:none;stroke:#868b91;stroke-miterlimit:10;stroke-width:3px"/><line x1="515.72" y1="339.53" x2="515.75" y2="475.39" style="fill:none;stroke:#868b91;stroke-miterlimit:10;stroke-width:3px"/><path d="M501.71,446.38s-23.84-1.49-22.25-4,1.06,16.94,1.06,16.94-.53,2.49,3.71,6.48a35.14,35.14,0,0,0,4.77,1.49c3.71,1,19,3.12,19,3.12s-7.13-1.63-6.42-12.09S501.71,446.38,501.71,446.38Z" style="fill:#4f4f4f"/><path d="M506.48,474.18l-1.06,5.34-11.65,4.37s-16.95-1-16.42-3.4,0-12.61,0-12.61Z" style="fill:#3f5494"/><path d="M600.4,479.52l.37,3.91-2.58,2.14v8.58l-8.77,3.75s-18.05,1.61-23.72-1.07l-1-9.11-3.09-1.61v-4.83l9.8,1.07S595.9,482.58,600.4,479.52Z" style="fill:#3f5494"/><polyline points="487.12 334.5 487.15 471.87 572.94 483.56 573.48 483.63 573.48 484.12" style="fill:none;stroke:#868b91;stroke-miterlimit:10;stroke-width:3px"/><path d="M484.5,464.72s-15.36,2.91,2.65,6.79" style="fill:none;stroke:#868b91;stroke-miterlimit:10;stroke-width:3px"/><path d="M652.41,315.34l-1.59-.2L559.18,303.7s-12.71-1-18.54,2.91l-57.73,22.8s-6.36,1,0,3.88,90.57,12.61,90.57,12.61,19.07,2.43,26.48-3.4l58.79-22.8a2.9,2.9,0,0,0-2.65-3.88Z" style="fill:none;stroke:#868b91;stroke-miterlimit:10;stroke-width:3px"/><polyline points="651.38 318.74 651.38 315.46 651.35 319.22" style="fill:none;stroke:#868b91;stroke-miterlimit:10;stroke-width:3px"/><path d="M622.56,311.61l-.08,4Z" style="fill:none;stroke:#868b91;stroke-miterlimit:10;stroke-width:3px"/><path d="M594,308.22l-.08,4Z" style="fill:none;stroke:#868b91;stroke-miterlimit:10;stroke-width:3px"/><path d="M565.88,304.34l-.08,4Z" style="fill:none;stroke:#868b91;stroke-miterlimit:10;stroke-width:3px"/><line x1="537.47" y1="308.06" x2="537.47" y2="314.37" style="fill:none;stroke:#868b91;stroke-miterlimit:10;stroke-width:3px"/><line x1="521.05" y1="314.61" x2="521.05" y2="320.92" style="fill:none;stroke:#868b91;stroke-miterlimit:10;stroke-width:3px"/><line x1="505.16" y1="320.43" x2="505.16" y2="326.74" style="fill:none;stroke:#868b91;stroke-miterlimit:10;stroke-width:3px"/><polygon points="660.09 453.81 660.09 468.85 654.26 470.79 654.26 463.51 652.14 463.51 652.14 457.69 660.09 453.81" style="fill:#3a4d87"/><polygon points="644.73 459.15 636.25 458.18 631.05 459.91 631.48 463.03 636.25 462.54 636.25 468.85 654.26 470.79 654.26 463.51 652.14 462.84 652.14 457.69 644.73 459.15" style="fill:#364984"/><polygon points="635.72 465.45 636.25 469.33 633.6 471.27 633.6 480 620.36 484.85 620.36 477.09 618.77 477.09 618.77 473.21 618.77 472.24 635.72 465.45" style="fill:#364984"/><polygon points="618.77 472.24 618.77 477.09 609.77 476.61 618.77 472.24" style="fill:#3a4d87"/><polygon points="649.49 458.66 640.84 457.85 648.13 454.78 653.73 452.36 657.61 453.44 656.38 456.24 649.49 458.66" style="fill:#1f263f"/><polyline points="620.36 477.09 609.77 476.61 610.3 483.4 620.36 484.85" style="fill:#3a4d87"/><path d="M573.46,347.29l0,135.87.88.16c14.47,2.48,27.2-4,27.2-4s49.26-19.89,55.09-22.8-2.91-4.12-2.91-4.12l-1.91-.24-2.6-.49" style="fill:none;stroke:#868b91;stroke-miterlimit:10;stroke-width:3px"/><path d="M658.35,429.07l-11.45,5.67s.95,21.06-3.14,21.87,13.39-3.31,15.8-11Z" style="fill:#4f4f4f"/><line x1="650.62" y1="323.74" x2="650.82" y2="459.39" style="fill:none;stroke:#868b91;stroke-miterlimit:10;stroke-width:3px"/><path d="M543.56,463.39s1.86-8-11.78-10.47-15.23,6.22-15.23,6.22V466l3.71,3.85s5.83-2.43,5.83-3.88-7.95-1.94-7.95-1.94l-.53-2.91,10.59,1S534,451.63,543.56,463.39Z" style="fill:#abadad;opacity:0.7000000000000001"/><path d="M543.56,464s-3.7-6.1-8.73-6.2a6.9,6.9,0,0,0-6.63,4.26s4.24,1.46,4.24,2.43,1.59,0,1.59,0a4,4,0,0,1,5.3,2.43s-.53,3.88-3.18,2.91l-1.06,1.46,8.47.49Z" style="fill:#faf9fc"/><path d="M532.43,464.48s-3.18-2.43-4.24-2.43-10.59-1-10.59-1l.53,2.91s9,.49,7.95,1.94,5.83,0,5.83,0Z" style="fill:#014988"/><path d="M535.61,468.36a1.49,1.49,0,0,1,0-2.43,1.65,1.65,0,0,1,2.12.49,1.38,1.38,0,0,1-.53,1.94A1.61,1.61,0,0,1,535.61,468.36Z" style="fill:#cbced1"/><path d="M533.49,465.94" style="fill:none;stroke:#95918e;stroke-miterlimit:10;stroke-width:2px"/><path d="M534,464.48s1.49-.94,3.92.5.45,4.24.45,4.24-1.19,1.08-2.25.59l-1.06,1.46s-6.36,3.88-9,3.4c0,0,1.7-4.71-3.39-6l3.39-2.74s-.66.81.73.65,5.1-.65,5.1-.65l.31-.85Z" style="fill:#95918e;opacity:0.7000000000000001"/><ellipse cx="523.17" cy="472.97" rx="3.44" ry="3.15" style="fill:#fc5a53"/><path d="M714.58,166.82s4.74,22.71,107,23.05,109.55-21.1,109.55-21.1L908.73,362.14s-4.94,35.42-96,34.6c0,0-55.89.66-76-30.33Z" style="fill:#2d2d2d"/><path d="M931.22,165.83c.28-15.6-47.88-28.68-107.57-29.22S715.33,148.29,715,163.89s47.88,28.68,107.57,29.22S930.93,181.43,931.22,165.83Z" style="fill:#383838"/><path d="M798,161.2s31.1,9.54,60.9.55l.23-12.73s-18.21,5.62-33.84,4.9a88.52,88.52,0,0,1-27.06-5.45Z" style="fill:#5b5b5b"/><path d="M859.12,147.57c.07-3.68-13.51-6.78-30.33-6.93s-30.5,2.71-30.57,6.38,13.51,6.78,30.33,6.93S859,151.25,859.12,147.57Z" style="fill:#818181;opacity:0.7000000000000001"/><path d="M725.47,249.14s8.94,24,96.88,26,99.45-23.32,99.45-23.32" style="fill:none;stroke:#b1b1b2;stroke-miterlimit:10;stroke-width:2px;opacity:0.85"/><path d="M731.21,307.28s21.64,24.82,83.93,26.54S900.79,319,900.79,319s11.31-6.91,13.88-10" style="fill:none;stroke:#b1b1b2;stroke-miterlimit:10;stroke-width:2px;opacity:0.85"/><path d="M883.77,187.08,856.3,394.27c48.15-8.61,51.34-31.36,51.34-31.36l22.43-193.38S926.16,181.06,883.77,187.08Z" style="fill:#686868;opacity:0.3"/></g></g></svg>