<svg xmlns="http://www.w3.org/2000/svg" viewBox="0 0 235.98 274.54"><title>tank_right</title><g id="Layer_2" data-name="Layer 2"><g id="Layer_1-2" data-name="Layer 1"><path d="M232.67,177.4V35.3s-.68-6.12-4.08-8.16L145,63.18l2.72,150.93,9.52-4.08.68,28.55,55.75-22.44s8.84-3.4,6.12-31.27Z" style="fill:#b3b7ba"/><path d="M145,63.18a68.62,68.62,0,0,1-18.36,0c-10.2-1.36-111.5-16.32-111.5-16.32V200.51l16.32,2V225s.68,9.52,10.2,10.88h13.6s-8.84-5.44-4.76-15,15.64-8.84,15.64-8.84,12.92-1.36,19,10.2V242l24.48,2s-3.4-2.72-3.4-6.8V212.07l15.64,2.72s14.28,4.08,25.83-.68Z" style="fill:#fafbfe"/><path d="M15.11,46.86,9,46.18s-7.48-2-5.44,29.91v121s4.08,4.08,11.56,3.4Z" style="fill:#c1c1c5"/><path d="M226.52,24.37,148,57.59s-13.9,3.39-33.37,0S12.4,42,12.4,42L96.52,6.07a28,28,0,0,1,11.82,0C115.29,7.42,227.91,23,227.91,23Z" style="fill:#898a8b"/><path d="M232.67,66.75s4.08,4.25,0,5.78-86,35.86-86,35.86-6.8,2-21.08.68-119-17-119-17-7.48-2.72-4.08-5.44" style="fill:none;stroke:#868b91;stroke-miterlimit:10;stroke-width:3px"/><path d="M232.67,113s4.08,4.25,0,5.78-86,35.86-86,35.86-6.8,2-21.08.68-119-17-119-17-7.48-2.72-4.08-5.44" style="fill:none;stroke:#868b91;stroke-miterlimit:10;stroke-width:3px"/><path d="M232.67,161.25s4.08,4.25,0,5.78-86,35.86-86,35.86-6.8,2-21.08.68-119-17-119-17-7.48-2.72-4.08-5.44" style="fill:none;stroke:#868b91;stroke-miterlimit:10;stroke-width:3px"/><line x1="201.49" y1="37.9" x2="201.74" y2="228.05" style="fill:none;stroke:#868b91;stroke-miterlimit:10;stroke-width:3px"/><line x1="179.74" y1="46.06" x2="179.98" y2="236.2" style="fill:none;stroke:#868b91;stroke-miterlimit:10;stroke-width:3px"/><line x1="159.34" y1="54.22" x2="159.59" y2="244.36" style="fill:none;stroke:#868b91;stroke-miterlimit:10;stroke-width:3px"/><path d="M157.89,237.57l-12.92,7a27.51,27.51,0,0,1-15.64,2.11c-8.84-1.41-17.68-3.52-17.68-3.52s-6.12,1.17-5.44-12.44V210.1l22,4.07s20.15,2.27,29.67-6.18Z" style="fill:#4f4f4f"/><line x1="87.49" y1="57.31" x2="87.52" y2="247.76" style="fill:none;stroke:#868b91;stroke-miterlimit:10;stroke-width:3px"/><line x1="49.41" y1="51.87" x2="49.45" y2="242.32" style="fill:none;stroke:#868b91;stroke-miterlimit:10;stroke-width:3px"/><path d="M31.43,201.65s-30.59-2.1-28.55-5.59,1.36,23.75,1.36,23.75S3.56,223.3,9,228.89a42.48,42.48,0,0,0,6.12,2.1c4.76,1.4,24.33,4.38,24.33,4.38s-9.15-2.28-8.24-16.95S31.43,201.65,31.43,201.65Z" style="fill:#4f4f4f"/><path d="M37.55,240.62l-1.36,7.48-15,6.12S-.52,252.86.16,249.46s0-17.68,0-17.68Z" style="fill:#3f5494"/><path d="M158.09,248.1l.47,5.48-3.31,3v12L144,273.87s-23.17,2.25-30.45-1.5l-1.32-12.78-4-2.25v-6.76l12.58,1.5S152.33,252.39,158.09,248.1Z" style="fill:#3f5494"/><polyline points="12.7 44.82 12.73 237.38 122.85 253.77 123.55 253.87 123.55 254.56" style="fill:none;stroke:#868b91;stroke-miterlimit:10;stroke-width:3px"/><path d="M9.34,227.37s-19.72,4.08,3.4,9.52" style="fill:none;stroke:#868b91;stroke-miterlimit:10;stroke-width:3px"/><path d="M224.85,18l-2-.28L105.2,1.65S88.88.29,81.4,5.73L7.3,37.68S-.86,39,7.3,43.12,123.55,60.8,123.55,60.8s24.48,3.4,34-4.76l75.46-32s1.36-4.76-3.4-5.44Z" style="fill:none;stroke:#868b91;stroke-miterlimit:10;stroke-width:3px"/><polyline points="223.54 22.73 223.54 18.14 223.49 23.41" style="fill:none;stroke:#868b91;stroke-miterlimit:10;stroke-width:3px"/><path d="M186.54,12.74l-.1,5.56Z" style="fill:none;stroke:#868b91;stroke-miterlimit:10;stroke-width:3px"/><path d="M149.83,8l-.1,5.56Z" style="fill:none;stroke:#868b91;stroke-miterlimit:10;stroke-width:3px"/><path d="M113.8,2.55l-.1,5.56Z" style="fill:none;stroke:#868b91;stroke-miterlimit:10;stroke-width:3px"/><line x1="77.32" y1="7.77" x2="77.32" y2="16.61" style="fill:none;stroke:#868b91;stroke-miterlimit:10;stroke-width:3px"/><line x1="56.25" y1="16.95" x2="56.25" y2="25.79" style="fill:none;stroke:#868b91;stroke-miterlimit:10;stroke-width:3px"/><line x1="35.85" y1="25.11" x2="35.85" y2="33.94" style="fill:none;stroke:#868b91;stroke-miterlimit:10;stroke-width:3px"/><polygon points="234.71 212.07 234.71 233.15 227.23 235.86 227.23 225.67 224.51 225.67 224.51 217.51 234.71 212.07" style="fill:#3a4d87"/><polygon points="215 219.55 204.12 218.19 197.44 220.63 198 224.99 204.12 224.31 204.12 233.15 227.23 235.86 227.23 225.67 224.51 224.73 224.51 217.51 215 219.55" style="fill:#364984"/><polygon points="203.44 228.39 204.12 233.82 200.72 236.54 200.72 248.78 183.72 255.58 183.72 244.7 181.68 244.7 181.68 239.26 181.68 237.9 203.44 228.39" style="fill:#364984"/><polygon points="181.68 237.9 181.68 244.7 170.12 244.02 181.68 237.9" style="fill:#3a4d87"/><polygon points="221.11 218.87 210.01 217.73 219.37 213.43 226.55 210.03 231.53 211.55 229.95 215.47 221.11 218.87" style="fill:#1f263f"/><polyline points="183.72 244.7 170.12 244.02 170.8 253.54 183.72 255.58" style="fill:#3a4d87"/><path d="M123.52,62.75l0,190.45,1.13.23c18.58,3.48,34.91-5.66,34.91-5.66s63.23-27.87,70.71-32-3.74-5.78-3.74-5.78l-2.45-.34-3.33-.68" style="fill:none;stroke:#868b91;stroke-miterlimit:10;stroke-width:3px"/><path d="M232.48,177.4l-14.7,8s1.22,29.51-4,30.66,17.19-4.64,20.28-15.48Z" style="fill:#4f4f4f"/><line x1="222.57" y1="29.74" x2="222.81" y2="219.89" style="fill:none;stroke:#868b91;stroke-miterlimit:10;stroke-width:3px"/><path d="M85.14,225.5S87.53,214.34,70,210.82s-19.55,8.72-19.55,8.72v9.56l4.76,5.4s7.48-3.4,7.48-5.44-10.2-2.72-10.2-2.72l-.68-4.08,13.6,1.36S72.9,209,85.14,225.5Z" style="fill:#abadad;opacity:0.7000000000000001"/><path d="M85.14,226.35s-4.75-8.55-11.21-8.7-8.5,6-8.5,6,5.44,2,5.44,3.4,2,0,2,0,4.76-2,6.8,3.4c0,0-.68,5.44-4.08,4.08l-1.36,2,10.88.68Z" style="fill:#faf9fc"/><path d="M70.86,227s-4.08-3.4-5.44-3.4-13.6-1.36-13.6-1.36l.68,4.08s11.56.68,10.2,2.72,7.48,0,7.48,0Z" style="fill:#014988"/><path d="M74.94,232.46a2.2,2.2,0,0,1,0-3.4,2,2,0,0,1,2,3.4A1.92,1.92,0,0,1,74.94,232.46Z" style="fill:#cbced1"/><path d="M72.22,229.07" style="fill:none;stroke:#95918e;stroke-miterlimit:10;stroke-width:2px"/><path d="M72.9,227s1.91-1.31,5,.7.58,5.95.58,5.95-1.53,1.51-2.89.83l-1.36,2S66.1,242,62.71,241.3c0,0,2.18-6.61-4.35-8.4l4.35-3.84s-.85,1.13.93.91,6.54-.91,6.54-.91l.4-1.2Z" style="fill:#95918e;opacity:0.7000000000000001"/><circle cx="58.97" cy="238.92" r="4.42" style="fill:#fc5a53"/></g></g></svg>