<svg xmlns="http://www.w3.org/2000/svg" viewBox="0 0 235.98 274.54"><title>tank_left</title><g id="Layer_2" data-name="Layer 2"><g id="Layer_1-2" data-name="Layer 1"><path d="M3.31,177.4V35.3S4,29.19,7.39,27.15L91,63.18,88.3,214.11,78.78,210l-.68,28.55L22.35,216.15s-8.84-3.4-6.12-31.27Z" style="fill:#b3b7ba"/><path d="M91,63.18a68.62,68.62,0,0,0,18.36,0c10.2-1.36,111.5-16.32,111.5-16.32V200.51l-16.32,2V225s-.68,9.52-10.2,10.88h-13.6s8.84-5.44,4.76-15-15.64-8.84-15.64-8.84-12.92-1.36-19,10.2V242l-24.48,2s3.4-2.72,3.4-6.8V212.07l-15.64,2.72s-14.28,4.08-25.83-.68Z" style="fill:#fafbfe"/><path d="M220.87,46.86l6.12-.68s7.48-2,5.44,29.91v121s-4.08,4.08-11.56,3.4Z" style="fill:#c1c1c5"/><path d="M9.46,24.37,88,57.59s13.9,3.39,33.37,0S223.59,42,223.59,42L139.47,6.07a28,28,0,0,0-11.82,0C120.7,7.42,8.07,23,8.07,23Z" style="fill:#898a8b"/><path d="M3.31,66.75s-4.08,4.25,0,5.78,86,35.86,86,35.86,6.8,2,21.08.68,119-17,119-17,7.48-2.72,4.08-5.44" style="fill:none;stroke:#868b91;stroke-miterlimit:10;stroke-width:3px"/><path d="M3.31,113s-4.08,4.25,0,5.78,86,35.86,86,35.86,6.8,2,21.08.68,119-17,119-17,7.48-2.72,4.08-5.44" style="fill:none;stroke:#868b91;stroke-miterlimit:10;stroke-width:3px"/><path d="M3.31,161.25s-4.08,4.25,0,5.78,86,35.86,86,35.86,6.8,2,21.08.68,119-17,119-17,7.48-2.72,4.08-5.44" style="fill:none;stroke:#868b91;stroke-miterlimit:10;stroke-width:3px"/><line x1="34.49" y1="37.9" x2="34.25" y2="228.05" style="fill:none;stroke:#868b91;stroke-miterlimit:10;stroke-width:3px"/><line x1="56.25" y1="46.06" x2="56" y2="236.2" style="fill:none;stroke:#868b91;stroke-miterlimit:10;stroke-width:3px"/><line x1="76.64" y1="54.22" x2="76.4" y2="244.36" style="fill:none;stroke:#868b91;stroke-miterlimit:10;stroke-width:3px"/><path d="M78.1,237.57l12.92,7a27.51,27.51,0,0,0,15.64,2.11c8.84-1.41,17.68-3.52,17.68-3.52s6.12,1.17,5.44-12.44V210.1l-22,4.07S87.62,216.44,78.1,208Z" style="fill:#4f4f4f"/><line x1="148.5" y1="57.31" x2="148.46" y2="247.76" style="fill:none;stroke:#868b91;stroke-miterlimit:10;stroke-width:3px"/><line x1="186.57" y1="51.87" x2="186.54" y2="242.32" style="fill:none;stroke:#868b91;stroke-miterlimit:10;stroke-width:3px"/><path d="M204.55,201.65s30.59-2.1,28.55-5.59-1.36,23.75-1.36,23.75.68,3.49-4.76,9.08a42.48,42.48,0,0,1-6.12,2.1c-4.76,1.4-24.33,4.38-24.33,4.38s9.15-2.28,8.24-16.95S204.55,201.65,204.55,201.65Z" style="fill:#4f4f4f"/><path d="M198.43,240.62l1.36,7.48,15,6.12s21.76-1.36,21.08-4.76,0-17.68,0-17.68Z" style="fill:#3f5494"/><path d="M77.89,248.1l-.47,5.48,3.31,3v12L92,273.87s23.17,2.25,30.45-1.5l1.32-12.78,4-2.25v-6.76l-12.58,1.5S83.66,252.39,77.89,248.1Z" style="fill:#3f5494"/><polyline points="223.28 44.82 223.25 237.38 113.13 253.77 112.43 253.87 112.43 254.56" style="fill:none;stroke:#868b91;stroke-miterlimit:10;stroke-width:3px"/><path d="M226.65,227.37s19.72,4.08-3.4,9.52" style="fill:none;stroke:#868b91;stroke-miterlimit:10;stroke-width:3px"/><path d="M11.13,18l2-.28,117.62-16S147.1.29,154.58,5.73l74.11,32s8.16,1.36,0,5.44S112.43,60.8,112.43,60.8,88,64.2,78.44,56L3,24.09s-1.36-4.76,3.4-5.44Z" style="fill:none;stroke:#868b91;stroke-miterlimit:10;stroke-width:3px"/><polyline points="12.44 22.73 12.44 18.14 12.49 23.41" style="fill:none;stroke:#868b91;stroke-miterlimit:10;stroke-width:3px"/><path d="M49.44,12.74l.1,5.56Z" style="fill:none;stroke:#868b91;stroke-miterlimit:10;stroke-width:3px"/><path d="M86.15,8l.1,5.56Z" style="fill:none;stroke:#868b91;stroke-miterlimit:10;stroke-width:3px"/><path d="M122.19,2.55l.1,5.56Z" style="fill:none;stroke:#868b91;stroke-miterlimit:10;stroke-width:3px"/><line x1="158.66" y1="7.77" x2="158.66" y2="16.61" style="fill:none;stroke:#868b91;stroke-miterlimit:10;stroke-width:3px"/><line x1="179.74" y1="16.95" x2="179.74" y2="25.79" style="fill:none;stroke:#868b91;stroke-miterlimit:10;stroke-width:3px"/><line x1="200.13" y1="25.11" x2="200.13" y2="33.94" style="fill:none;stroke:#868b91;stroke-miterlimit:10;stroke-width:3px"/><polygon points="1.27 212.07 1.27 233.15 8.75 235.86 8.75 225.67 11.47 225.67 11.47 217.51 1.27 212.07" style="fill:#3a4d87"/><polygon points="20.99 219.55 31.87 218.19 38.54 220.63 37.99 224.99 31.87 224.31 31.87 233.15 8.75 235.86 8.75 225.67 11.47 224.73 11.47 217.51 20.99 219.55" style="fill:#364984"/><polygon points="32.55 228.39 31.87 233.82 35.27 236.54 35.27 248.78 52.26 255.58 52.26 244.7 54.3 244.7 54.3 239.26 54.3 237.9 32.55 228.39" style="fill:#364984"/><polygon points="54.3 237.9 54.3 244.7 65.86 244.02 54.3 237.9" style="fill:#3a4d87"/><polygon points="14.87 218.87 25.98 217.73 16.61 213.43 9.43 210.03 4.46 211.55 6.03 215.47 14.87 218.87" style="fill:#1f263f"/><polyline points="52.26 244.7 65.86 244.02 65.18 253.54 52.26 255.58" style="fill:#3a4d87"/><path d="M112.47,62.75l0,190.45-1.13.23c-18.58,3.48-34.91-5.66-34.91-5.66s-63.23-27.87-70.71-32S9.43,210,9.43,210l2.45-.34,3.33-.68" style="fill:none;stroke:#868b91;stroke-miterlimit:10;stroke-width:3px"/><path d="M3.5,177.4l14.7,8S17,214.86,22.24,216,5,211.37,2,200.53Z" style="fill:#4f4f4f"/><line x1="13.42" y1="29.74" x2="13.17" y2="219.89" style="fill:none;stroke:#868b91;stroke-miterlimit:10;stroke-width:3px"/><path d="M150.84,225.5s-2.39-11.16,15.12-14.67,19.55,8.72,19.55,8.72v9.56l-4.76,5.4s-7.48-3.4-7.48-5.44,10.2-2.72,10.2-2.72l.68-4.08-13.6,1.36S163.08,209,150.84,225.5Z" style="fill:#abadad;opacity:0.7000000000000001"/><path d="M150.84,226.35s4.75-8.55,11.21-8.7,8.5,6,8.5,6-5.44,2-5.44,3.4-2,0-2,0-4.76-2-6.8,3.4c0,0,.68,5.44,4.08,4.08l1.36,2-10.88.68Z" style="fill:#faf9fc"/><path d="M165.12,227s4.08-3.4,5.44-3.4,13.6-1.36,13.6-1.36l-.68,4.08s-11.56.68-10.2,2.72-7.48,0-7.48,0Z" style="fill:#014988"/><path d="M161,232.46a2.2,2.2,0,0,0,0-3.4,2,2,0,0,0-2,3.4A1.92,1.92,0,0,0,161,232.46Z" style="fill:#cbced1"/><path d="M163.76,229.07" style="fill:none;stroke:#95918e;stroke-miterlimit:10;stroke-width:2px"/><path d="M163.08,227s-1.91-1.31-5,.7-.58,5.95-.58,5.95,1.53,1.51,2.89.83l1.36,2s8.16,5.44,11.56,4.76c0,0-2.18-6.61,4.35-8.4l-4.35-3.84s.85,1.13-.93.91-6.54-.91-6.54-.91l-.4-1.2Z" style="fill:#95918e;opacity:0.7000000000000001"/><circle cx="177.02" cy="238.92" r="4.42" style="fill:#fc5a53"/></g></g></svg>