<svg xmlns="http://www.w3.org/2000/svg" width="90" height="103.5" viewBox="0 0 90 103.5"><title>ceuvel-logo</title><polygon points="0 25.8 45 0 90 25.8 90 77.7 45 103.5 0 77.7 0 25.8" style="fill:#fff"/><path d="M65.7,53.6v1.7l-3.9-1.8a.1.1,0,0,1-.1-.1c0-.8-.4-1.3-.8-1.3s-.5.3-.7.7H60l-1.6-.7h0c0-.9-.4-1.7-.9-1.7s-.8.5-.9,1.2a6.6,6.6,0,0,0-1.7-.7h-.3v-.3c0-1.2-.5-2.1-1.2-2.1s-1.1.7-1.2,1.4l-.9-.3-1.2-.5V43.8ZM49.9,43.8v4.9l-12-4.3ZM28.8,69.5Zm1.6,1.7c-.8-1.3-1.2-7.6-1.2-7.6s-.1,3-.3,5.1c0-.4-2.6-4.2-3.2-19.7l4.6-5.9Zm.3.3Zm42.9-3L73,66.7s.5,4.6-.3,4.6-.8-3.4-.8-3.4-.3,3.3-.7,3.3-.5-3.5-.5-3.5-.9,3.1-1.4,3.3-.5-2.2-.5-2.2-.1,2.5-.8,2.6-.8-3-.8-3-.4,2.2-.8,2.2-2-4.6-2-4.6.8,5.6.1,5.6-.9-3.7-.9-3.7-.1,3.1-.5,3.1S62,66.9,62,66.9s-.3,4.5-.7,4.5-.8-1.4-.8-1.4,0,1.6-.4,1.6S58.9,66,58.9,66s.1,5.4-.3,5.4-.8-5.9-.8-5.9-1.3,5.6-1.7,5.6-1.3-4.2-1.3-4.2.5,4.5-.3,4.5-.8-2.1-.8-2.1-.5,1.3-1.1,1.3-.9-4.7-.9-4.7-.1,3.8-.9,3.8-1.6-7.9-1.6-7.9-.8,8-1.6,8.1-1.2-3.7-1.2-3.7-.5,4.9-1.2,4.9-.9-8.9-.9-8.9-.7,5.9-1.3,5.9-.9-6.2-.9-6.2-.4,8.1-.9,8.1-1.7-15.3-1.7-15.3,0,17.6-.5,17.6-1.3-7.3-1.3-7.3-.5,5.2-.9,5.2-1.2-6.8-1.2-6.8-.7,7.9-1.7,7.9-1.7-7.1-1.7-7.1-.5,6-1.3,7.2V43l1.4.4,1.7.5,1.7.5,1.8.5,1.7.5,1.7.7,1.7.7,1.7.7,1.7.7,1.7.7,1.7.7,1.7.7a8.5,8.5,0,0,0,1.7.5l1.7.7a6.6,6.6,0,0,0,1.7.7l1.7.7,1.7.7,1.7.8,1.7.7,1.7.8,1.6.9,1.7.7,1.6.9,1.6.8,1.6.9,1.2.7A25.2,25.2,0,0,1,73.6,68.5Z" transform="translate(-5 -5.8)" style="fill:#222221"/></svg>